G04 EAGLE Gerber RS-274X export*
G75*
%MOMM*%
%FSLAX34Y34*%
%LPD*%
%INTop Copper*%
%IPPOS*%
%AMOC8*
5,1,8,0,0,1.08239X$1,22.5*%
G01*
%ADD10P,1.429621X8X292.500000*%
%ADD11P,1.429621X8X22.500000*%
%ADD12P,1.429621X8X202.500000*%
%ADD13P,1.429621X8X112.500000*%
%ADD14C,1.320800*%
%ADD15C,1.879600*%
%ADD16C,1.408000*%
%ADD17C,0.609600*%
%ADD18C,0.406400*%
%ADD19C,0.756400*%


D10*
X330200Y419100D03*
X330200Y393700D03*
D11*
X317500Y215900D03*
X342900Y215900D03*
D12*
X190500Y114300D03*
X165100Y114300D03*
D10*
X394970Y482600D03*
X394970Y457200D03*
X105410Y482600D03*
X105410Y457200D03*
D13*
X377190Y359410D03*
X377190Y435610D03*
X116840Y356870D03*
X116840Y433070D03*
D10*
X406400Y435610D03*
X406400Y359410D03*
X87630Y433070D03*
X87630Y356870D03*
D14*
X209296Y419100D02*
X222504Y419100D01*
X222504Y393700D02*
X209296Y393700D01*
X209296Y368300D02*
X222504Y368300D01*
X222504Y342900D02*
X209296Y342900D01*
X209296Y317500D02*
X222504Y317500D01*
X222504Y292100D02*
X209296Y292100D01*
X209296Y266700D02*
X222504Y266700D01*
X222504Y241300D02*
X209296Y241300D01*
X209296Y215900D02*
X222504Y215900D01*
X222504Y190500D02*
X209296Y190500D01*
X209296Y165100D02*
X222504Y165100D01*
X222504Y139700D02*
X209296Y139700D01*
X209296Y114300D02*
X222504Y114300D01*
X222504Y88900D02*
X209296Y88900D01*
X285496Y88900D02*
X298704Y88900D01*
X298704Y114300D02*
X285496Y114300D01*
X285496Y139700D02*
X298704Y139700D01*
X298704Y165100D02*
X285496Y165100D01*
X285496Y190500D02*
X298704Y190500D01*
X298704Y215900D02*
X285496Y215900D01*
X285496Y241300D02*
X298704Y241300D01*
X298704Y266700D02*
X285496Y266700D01*
X285496Y292100D02*
X298704Y292100D01*
X298704Y317500D02*
X285496Y317500D01*
X285496Y342900D02*
X298704Y342900D01*
X298704Y368300D02*
X285496Y368300D01*
X285496Y393700D02*
X298704Y393700D01*
X298704Y419100D02*
X285496Y419100D01*
D15*
X417830Y107950D03*
X417830Y83820D03*
X469900Y368300D03*
X469900Y342900D03*
X469900Y317500D03*
X469900Y292100D03*
X469900Y266700D03*
X469900Y241300D03*
X469900Y215900D03*
X469900Y190500D03*
X469900Y165100D03*
X469900Y139700D03*
X25400Y241300D03*
X25400Y215900D03*
X25400Y190500D03*
X25400Y165100D03*
X25400Y139700D03*
X25400Y368300D03*
X25400Y342900D03*
X25400Y317500D03*
X25400Y292100D03*
X25400Y266700D03*
X25400Y76200D03*
X25400Y50800D03*
X25400Y25400D03*
X154940Y25400D03*
X154940Y50800D03*
D16*
X203600Y50790D03*
X228600Y50790D03*
X253600Y50790D03*
X253600Y17790D03*
X228600Y17790D03*
X203600Y17790D03*
D15*
X127000Y25400D03*
X127000Y50800D03*
X127000Y76200D03*
X127000Y101600D03*
X415290Y20320D03*
X389890Y20320D03*
X364490Y20320D03*
X339090Y20320D03*
X313690Y20320D03*
X288290Y20320D03*
X205740Y480060D03*
X231140Y480060D03*
X256540Y480060D03*
X281940Y480060D03*
X307340Y480060D03*
X447040Y21590D03*
X447040Y46990D03*
X447040Y72390D03*
X447040Y97790D03*
X429260Y471170D03*
X480060Y471170D03*
X71120Y471170D03*
X20320Y471170D03*
D17*
X203600Y50790D02*
X203600Y17790D01*
X177800Y50800D02*
X154940Y50800D01*
X177800Y50800D02*
X203600Y25000D01*
X203600Y17790D01*
D18*
X215900Y114300D02*
X190500Y114300D01*
X330200Y419100D02*
X368300Y419100D01*
X406400Y381000D01*
X406400Y359410D01*
X447040Y46990D02*
X453390Y46990D01*
X469900Y63500D01*
X469900Y114300D01*
X444500Y139700D01*
X444500Y152400D01*
X457200Y165100D01*
X469900Y165100D01*
X127000Y25400D02*
X101600Y25400D01*
X76200Y50800D01*
D19*
X76200Y50800D03*
X76200Y127000D03*
D18*
X76200Y50800D02*
X25400Y50800D01*
X177800Y127000D02*
X190500Y114300D01*
X177800Y127000D02*
X76200Y127000D01*
X58420Y190500D02*
X25400Y190500D01*
D19*
X76200Y172720D03*
D18*
X58420Y190500D01*
X76200Y172720D02*
X76200Y127000D01*
D19*
X138430Y419100D03*
D18*
X151130Y431800D01*
X201930Y431800D01*
X231140Y461010D01*
X231140Y480060D01*
X231140Y450850D02*
X262890Y419100D01*
X231140Y450850D02*
X231140Y480060D01*
X262890Y419100D02*
X292100Y419100D01*
D17*
X253600Y50790D02*
X253600Y17790D01*
X364490Y20320D02*
X364490Y38100D01*
X351790Y50800D01*
X253610Y50800D01*
X253600Y50790D01*
D18*
X116840Y445770D02*
X105410Y457200D01*
X116840Y445770D02*
X116840Y433070D01*
X292100Y215900D02*
X317500Y215900D01*
X429260Y454660D02*
X429260Y471170D01*
X410210Y435610D02*
X406400Y435610D01*
X410210Y435610D02*
X429260Y454660D01*
X218440Y419100D02*
X215900Y419100D01*
X396240Y445770D02*
X406400Y435610D01*
X383938Y445770D02*
X372508Y457200D01*
X383938Y445770D02*
X396240Y445770D01*
X242570Y419100D02*
X215900Y419100D01*
X242570Y419100D02*
X255270Y406400D01*
X313690Y416560D02*
X313690Y440690D01*
X330200Y457200D01*
X372508Y457200D01*
X303530Y406400D02*
X255270Y406400D01*
X303530Y406400D02*
X313690Y416560D01*
X215900Y139700D02*
X203200Y139700D01*
X208280Y139700D02*
X215900Y139700D01*
X208280Y139700D02*
X171450Y176530D01*
D19*
X171450Y176530D03*
X171450Y443230D03*
D18*
X132080Y482600D01*
X105410Y482600D01*
X71120Y471170D02*
X71120Y449580D01*
X87630Y433070D01*
X203200Y165100D02*
X215900Y165100D01*
X203200Y165100D02*
X190500Y177800D01*
D19*
X190500Y177800D03*
X190500Y406400D03*
D18*
X114300Y406400D01*
X87630Y433070D01*
X292100Y165100D02*
X317500Y165100D01*
D19*
X317500Y165100D03*
X317500Y114300D03*
D18*
X392430Y114300D01*
X398780Y107950D01*
X417830Y107950D01*
X426720Y107950D01*
X436880Y97790D01*
X447040Y97790D01*
X398780Y83820D02*
X393700Y88900D01*
X398780Y83820D02*
X417830Y83820D01*
X429260Y72390D01*
X447040Y72390D01*
D19*
X335280Y139700D03*
X335280Y88900D03*
D18*
X335280Y139700D02*
X292100Y139700D01*
X335280Y88900D02*
X393700Y88900D01*
X266700Y215900D02*
X215900Y215900D01*
D19*
X266700Y215900D03*
D18*
X215900Y393700D02*
X181610Y393700D01*
X172720Y384810D01*
X41910Y384810D01*
X25400Y368300D01*
X182880Y368300D02*
X215900Y368300D01*
X182880Y368300D02*
X177800Y373380D01*
X55880Y373380D01*
X25400Y342900D01*
X190500Y292100D02*
X215900Y292100D01*
X190500Y292100D02*
X165100Y317500D01*
X25400Y317500D01*
X127000Y190500D02*
X215900Y190500D01*
D19*
X127000Y190500D03*
X127000Y292100D03*
D18*
X25400Y292100D01*
X152400Y88900D02*
X215900Y88900D01*
D19*
X152400Y88900D03*
X152400Y266700D03*
D18*
X25400Y266700D01*
X292100Y114300D02*
X304800Y127000D01*
D19*
X381000Y127000D03*
X381000Y215900D03*
D18*
X469900Y215900D01*
X381000Y127000D02*
X304800Y127000D01*
X292100Y88900D02*
X279400Y88900D01*
X241300Y127000D01*
X203200Y127000D01*
X152400Y177800D01*
X114300Y177800D01*
X50800Y241300D01*
X25400Y241300D01*
X292100Y241300D02*
X469900Y241300D01*
X469900Y266700D02*
X292100Y266700D01*
X292100Y292100D02*
X469900Y292100D01*
X469900Y317500D02*
X292100Y317500D01*
X339090Y342900D02*
X349250Y332740D01*
X433070Y332740D02*
X443230Y342900D01*
X469900Y342900D01*
X339090Y342900D02*
X292100Y342900D01*
X349250Y332740D02*
X433070Y332740D01*
X342900Y368300D02*
X292100Y368300D01*
X342900Y368300D02*
X364490Y346710D01*
X419100Y346710D01*
X440690Y368300D01*
X469900Y368300D01*
D17*
X228600Y50790D02*
X228600Y17790D01*
X185420Y76200D02*
X127000Y76200D01*
X185420Y76200D02*
X195580Y66040D01*
X214630Y66040D01*
X228600Y52070D01*
X228600Y50790D01*
X247660Y69850D01*
X342900Y69850D01*
X345440Y69850D01*
X127000Y76200D02*
X25400Y76200D01*
X25400Y215900D02*
X50800Y215900D01*
D19*
X50800Y215900D03*
X50800Y152400D03*
D17*
X50800Y114300D01*
X25400Y88900D01*
X25400Y76200D01*
X345440Y69850D02*
X358140Y69850D01*
D19*
X358140Y69850D03*
X358140Y190500D03*
D17*
X469900Y190500D01*
M02*
