G04 EAGLE Gerber RS-274X export*
G75*
%MOMM*%
%FSLAX34Y34*%
%LPD*%
%INSilkscreen Bottom*%
%IPPOS*%
%AMOC8*
5,1,8,0,0,1.08239X$1,22.5*%
G01*
%ADD10C,0.203200*%


D10*
X86614Y364236D02*
X82550Y376428D01*
X78486Y364236D01*
X79502Y367284D02*
X85598Y367284D01*
X73135Y370332D02*
X73132Y370572D01*
X73124Y370812D01*
X73109Y371051D01*
X73089Y371290D01*
X73064Y371528D01*
X73032Y371766D01*
X72995Y372003D01*
X72952Y372239D01*
X72904Y372474D01*
X72850Y372708D01*
X72791Y372940D01*
X72726Y373171D01*
X72655Y373400D01*
X72579Y373628D01*
X72498Y373853D01*
X72411Y374077D01*
X72319Y374299D01*
X72222Y374518D01*
X72119Y374735D01*
X72085Y374826D01*
X72048Y374916D01*
X72008Y375004D01*
X71965Y375091D01*
X71918Y375176D01*
X71867Y375259D01*
X71814Y375340D01*
X71757Y375419D01*
X71698Y375496D01*
X71635Y375571D01*
X71570Y375642D01*
X71502Y375712D01*
X71431Y375778D01*
X71358Y375842D01*
X71283Y375903D01*
X71205Y375961D01*
X71124Y376016D01*
X71042Y376068D01*
X70958Y376116D01*
X70872Y376162D01*
X70785Y376204D01*
X70695Y376242D01*
X70605Y376277D01*
X70513Y376308D01*
X70420Y376336D01*
X70326Y376361D01*
X70231Y376381D01*
X70135Y376398D01*
X70039Y376411D01*
X69942Y376420D01*
X69845Y376426D01*
X69748Y376428D01*
X69651Y376426D01*
X69554Y376420D01*
X69457Y376411D01*
X69361Y376398D01*
X69265Y376381D01*
X69170Y376361D01*
X69076Y376336D01*
X68983Y376308D01*
X68891Y376277D01*
X68801Y376242D01*
X68711Y376204D01*
X68624Y376162D01*
X68538Y376116D01*
X68454Y376068D01*
X68372Y376016D01*
X68291Y375961D01*
X68213Y375903D01*
X68138Y375842D01*
X68065Y375778D01*
X67994Y375712D01*
X67926Y375642D01*
X67861Y375571D01*
X67798Y375496D01*
X67739Y375419D01*
X67682Y375340D01*
X67629Y375259D01*
X67578Y375176D01*
X67531Y375091D01*
X67488Y375004D01*
X67448Y374916D01*
X67411Y374826D01*
X67377Y374735D01*
X67378Y374735D02*
X67275Y374518D01*
X67178Y374299D01*
X67086Y374077D01*
X66999Y373853D01*
X66918Y373628D01*
X66842Y373400D01*
X66771Y373171D01*
X66706Y372940D01*
X66647Y372708D01*
X66593Y372474D01*
X66545Y372239D01*
X66502Y372003D01*
X66465Y371766D01*
X66433Y371528D01*
X66408Y371290D01*
X66388Y371051D01*
X66373Y370812D01*
X66365Y370572D01*
X66362Y370332D01*
X73135Y370332D02*
X73132Y370092D01*
X73124Y369852D01*
X73109Y369613D01*
X73089Y369374D01*
X73064Y369136D01*
X73032Y368898D01*
X72995Y368661D01*
X72952Y368425D01*
X72904Y368190D01*
X72850Y367956D01*
X72791Y367724D01*
X72726Y367493D01*
X72655Y367264D01*
X72579Y367036D01*
X72498Y366811D01*
X72411Y366587D01*
X72319Y366365D01*
X72222Y366146D01*
X72119Y365929D01*
X72085Y365838D01*
X72048Y365748D01*
X72008Y365660D01*
X71965Y365573D01*
X71918Y365488D01*
X71867Y365405D01*
X71814Y365324D01*
X71757Y365245D01*
X71698Y365168D01*
X71635Y365093D01*
X71570Y365022D01*
X71502Y364952D01*
X71431Y364886D01*
X71358Y364822D01*
X71283Y364761D01*
X71205Y364703D01*
X71124Y364648D01*
X71042Y364596D01*
X70958Y364548D01*
X70872Y364502D01*
X70785Y364460D01*
X70695Y364422D01*
X70605Y364387D01*
X70513Y364356D01*
X70420Y364328D01*
X70326Y364303D01*
X70231Y364283D01*
X70135Y364266D01*
X70039Y364253D01*
X69942Y364244D01*
X69845Y364238D01*
X69748Y364236D01*
X67378Y365929D02*
X67275Y366146D01*
X67178Y366365D01*
X67086Y366587D01*
X66999Y366811D01*
X66918Y367036D01*
X66842Y367264D01*
X66771Y367493D01*
X66706Y367724D01*
X66647Y367956D01*
X66593Y368190D01*
X66545Y368425D01*
X66502Y368661D01*
X66465Y368898D01*
X66433Y369136D01*
X66408Y369374D01*
X66388Y369613D01*
X66373Y369852D01*
X66365Y370092D01*
X66362Y370332D01*
X67377Y365929D02*
X67411Y365838D01*
X67448Y365748D01*
X67488Y365660D01*
X67531Y365573D01*
X67578Y365488D01*
X67629Y365405D01*
X67682Y365324D01*
X67739Y365245D01*
X67798Y365168D01*
X67861Y365093D01*
X67926Y365022D01*
X67994Y364952D01*
X68065Y364886D01*
X68138Y364822D01*
X68213Y364761D01*
X68291Y364703D01*
X68372Y364648D01*
X68454Y364596D01*
X68538Y364548D01*
X68624Y364502D01*
X68711Y364460D01*
X68801Y364422D01*
X68891Y364387D01*
X68983Y364356D01*
X69076Y364328D01*
X69170Y364303D01*
X69265Y364283D01*
X69361Y364266D01*
X69457Y364253D01*
X69554Y364244D01*
X69651Y364238D01*
X69748Y364236D01*
X72458Y366945D02*
X67039Y373719D01*
X82550Y351028D02*
X86614Y338836D01*
X78486Y338836D02*
X82550Y351028D01*
X79502Y341884D02*
X85598Y341884D01*
X73135Y348319D02*
X69748Y351028D01*
X69748Y338836D01*
X66362Y338836D02*
X73135Y338836D01*
X83227Y320209D02*
X86614Y320209D01*
X83227Y320210D02*
X83111Y320208D01*
X82996Y320202D01*
X82881Y320192D01*
X82766Y320178D01*
X82652Y320161D01*
X82538Y320139D01*
X82425Y320114D01*
X82313Y320084D01*
X82202Y320051D01*
X82093Y320014D01*
X81984Y319974D01*
X81878Y319930D01*
X81772Y319882D01*
X81669Y319830D01*
X81567Y319775D01*
X81467Y319717D01*
X81369Y319655D01*
X81274Y319590D01*
X81180Y319522D01*
X81090Y319450D01*
X81001Y319376D01*
X80915Y319298D01*
X80832Y319218D01*
X80752Y319135D01*
X80674Y319049D01*
X80600Y318960D01*
X80528Y318870D01*
X80460Y318776D01*
X80395Y318681D01*
X80333Y318583D01*
X80275Y318483D01*
X80220Y318381D01*
X80168Y318278D01*
X80120Y318172D01*
X80076Y318066D01*
X80036Y317957D01*
X79999Y317848D01*
X79966Y317737D01*
X79936Y317625D01*
X79911Y317512D01*
X79889Y317398D01*
X79872Y317284D01*
X79858Y317169D01*
X79848Y317054D01*
X79842Y316939D01*
X79840Y316823D01*
X79842Y316707D01*
X79848Y316592D01*
X79858Y316477D01*
X79872Y316362D01*
X79889Y316248D01*
X79911Y316134D01*
X79936Y316021D01*
X79966Y315909D01*
X79999Y315798D01*
X80036Y315689D01*
X80076Y315580D01*
X80120Y315474D01*
X80168Y315368D01*
X80220Y315265D01*
X80275Y315163D01*
X80333Y315063D01*
X80395Y314965D01*
X80460Y314870D01*
X80528Y314776D01*
X80600Y314686D01*
X80674Y314597D01*
X80752Y314511D01*
X80832Y314428D01*
X80915Y314348D01*
X81001Y314270D01*
X81090Y314196D01*
X81180Y314124D01*
X81274Y314056D01*
X81369Y313991D01*
X81467Y313929D01*
X81567Y313871D01*
X81669Y313816D01*
X81772Y313764D01*
X81878Y313716D01*
X81984Y313672D01*
X82093Y313632D01*
X82202Y313595D01*
X82313Y313562D01*
X82425Y313532D01*
X82538Y313507D01*
X82652Y313485D01*
X82766Y313468D01*
X82881Y313454D01*
X82996Y313444D01*
X83111Y313438D01*
X83227Y313436D01*
X86614Y313436D01*
X86614Y325628D01*
X83227Y325628D01*
X83124Y325626D01*
X83022Y325620D01*
X82920Y325611D01*
X82818Y325597D01*
X82717Y325580D01*
X82617Y325558D01*
X82518Y325533D01*
X82419Y325505D01*
X82322Y325472D01*
X82226Y325436D01*
X82131Y325397D01*
X82038Y325353D01*
X81947Y325307D01*
X81858Y325256D01*
X81770Y325203D01*
X81685Y325146D01*
X81602Y325086D01*
X81521Y325023D01*
X81442Y324957D01*
X81367Y324888D01*
X81293Y324816D01*
X81223Y324742D01*
X81155Y324665D01*
X81091Y324585D01*
X81029Y324503D01*
X80971Y324419D01*
X80916Y324332D01*
X80864Y324244D01*
X80816Y324153D01*
X80771Y324061D01*
X80729Y323968D01*
X80691Y323872D01*
X80657Y323776D01*
X80626Y323678D01*
X80600Y323579D01*
X80576Y323479D01*
X80557Y323378D01*
X80542Y323277D01*
X80530Y323175D01*
X80522Y323073D01*
X80518Y322970D01*
X80518Y322868D01*
X80522Y322765D01*
X80530Y322663D01*
X80542Y322561D01*
X80557Y322460D01*
X80576Y322359D01*
X80600Y322259D01*
X80626Y322160D01*
X80657Y322062D01*
X80691Y321966D01*
X80729Y321870D01*
X80771Y321777D01*
X80816Y321685D01*
X80864Y321594D01*
X80916Y321506D01*
X80971Y321419D01*
X81029Y321335D01*
X81091Y321253D01*
X81155Y321173D01*
X81223Y321096D01*
X81293Y321022D01*
X81367Y320950D01*
X81442Y320881D01*
X81521Y320815D01*
X81602Y320752D01*
X81685Y320692D01*
X81770Y320635D01*
X81858Y320582D01*
X81947Y320531D01*
X82038Y320485D01*
X82131Y320441D01*
X82226Y320402D01*
X82322Y320366D01*
X82419Y320333D01*
X82518Y320305D01*
X82617Y320280D01*
X82717Y320258D01*
X82818Y320241D01*
X82920Y320227D01*
X83022Y320218D01*
X83124Y320212D01*
X83227Y320210D01*
X70778Y325628D02*
X70669Y325626D01*
X70561Y325620D01*
X70452Y325611D01*
X70344Y325597D01*
X70237Y325580D01*
X70130Y325558D01*
X70024Y325533D01*
X69919Y325505D01*
X69815Y325472D01*
X69713Y325436D01*
X69612Y325396D01*
X69512Y325353D01*
X69414Y325306D01*
X69317Y325255D01*
X69223Y325201D01*
X69130Y325144D01*
X69040Y325084D01*
X68951Y325020D01*
X68865Y324953D01*
X68782Y324884D01*
X68701Y324811D01*
X68623Y324735D01*
X68547Y324657D01*
X68474Y324576D01*
X68405Y324493D01*
X68338Y324407D01*
X68274Y324318D01*
X68214Y324228D01*
X68157Y324135D01*
X68103Y324041D01*
X68052Y323944D01*
X68005Y323846D01*
X67962Y323746D01*
X67922Y323645D01*
X67886Y323543D01*
X67853Y323439D01*
X67825Y323334D01*
X67800Y323228D01*
X67778Y323121D01*
X67761Y323014D01*
X67747Y322906D01*
X67738Y322797D01*
X67732Y322689D01*
X67730Y322580D01*
X70778Y325628D02*
X70901Y325626D01*
X71024Y325620D01*
X71147Y325611D01*
X71269Y325597D01*
X71391Y325580D01*
X71512Y325559D01*
X71633Y325534D01*
X71753Y325505D01*
X71871Y325472D01*
X71989Y325436D01*
X72105Y325396D01*
X72221Y325353D01*
X72334Y325305D01*
X72447Y325255D01*
X72557Y325201D01*
X72666Y325143D01*
X72773Y325082D01*
X72878Y325017D01*
X72981Y324950D01*
X73081Y324879D01*
X73180Y324805D01*
X73276Y324728D01*
X73369Y324648D01*
X73460Y324565D01*
X73549Y324479D01*
X73634Y324391D01*
X73717Y324300D01*
X73797Y324206D01*
X73874Y324110D01*
X73948Y324011D01*
X74018Y323911D01*
X74086Y323808D01*
X74150Y323703D01*
X74211Y323596D01*
X74269Y323487D01*
X74323Y323376D01*
X74373Y323264D01*
X74420Y323150D01*
X74464Y323035D01*
X74503Y322919D01*
X68746Y320209D02*
X68667Y320287D01*
X68591Y320367D01*
X68518Y320449D01*
X68448Y320535D01*
X68380Y320622D01*
X68315Y320712D01*
X68254Y320803D01*
X68196Y320897D01*
X68140Y320993D01*
X68089Y321090D01*
X68040Y321190D01*
X67995Y321290D01*
X67953Y321393D01*
X67915Y321496D01*
X67880Y321601D01*
X67849Y321707D01*
X67821Y321814D01*
X67797Y321922D01*
X67776Y322030D01*
X67760Y322139D01*
X67747Y322249D01*
X67737Y322359D01*
X67732Y322470D01*
X67730Y322580D01*
X68746Y320209D02*
X74503Y313436D01*
X67730Y313436D01*
X82550Y300228D02*
X86614Y288036D01*
X78486Y288036D02*
X82550Y300228D01*
X79502Y291084D02*
X85598Y291084D01*
X73135Y288036D02*
X69748Y288036D01*
X69632Y288038D01*
X69517Y288044D01*
X69402Y288054D01*
X69287Y288068D01*
X69173Y288085D01*
X69059Y288107D01*
X68946Y288132D01*
X68834Y288162D01*
X68723Y288195D01*
X68614Y288232D01*
X68505Y288272D01*
X68399Y288316D01*
X68293Y288364D01*
X68190Y288416D01*
X68088Y288471D01*
X67988Y288529D01*
X67890Y288591D01*
X67795Y288656D01*
X67701Y288724D01*
X67611Y288796D01*
X67522Y288870D01*
X67436Y288948D01*
X67353Y289028D01*
X67273Y289111D01*
X67195Y289197D01*
X67121Y289286D01*
X67049Y289376D01*
X66981Y289470D01*
X66916Y289565D01*
X66854Y289663D01*
X66796Y289763D01*
X66741Y289865D01*
X66689Y289968D01*
X66641Y290074D01*
X66597Y290180D01*
X66557Y290289D01*
X66520Y290398D01*
X66487Y290509D01*
X66457Y290621D01*
X66432Y290734D01*
X66410Y290848D01*
X66393Y290962D01*
X66379Y291077D01*
X66369Y291192D01*
X66363Y291307D01*
X66361Y291423D01*
X66363Y291539D01*
X66369Y291654D01*
X66379Y291769D01*
X66393Y291884D01*
X66410Y291998D01*
X66432Y292112D01*
X66457Y292225D01*
X66487Y292337D01*
X66520Y292448D01*
X66557Y292557D01*
X66597Y292666D01*
X66641Y292772D01*
X66689Y292878D01*
X66741Y292981D01*
X66796Y293083D01*
X66854Y293183D01*
X66916Y293281D01*
X66981Y293376D01*
X67049Y293470D01*
X67121Y293560D01*
X67195Y293649D01*
X67273Y293735D01*
X67353Y293818D01*
X67436Y293898D01*
X67522Y293976D01*
X67611Y294050D01*
X67701Y294122D01*
X67795Y294190D01*
X67890Y294255D01*
X67988Y294317D01*
X68088Y294375D01*
X68190Y294430D01*
X68293Y294482D01*
X68399Y294530D01*
X68505Y294574D01*
X68614Y294614D01*
X68723Y294651D01*
X68834Y294684D01*
X68946Y294714D01*
X69059Y294739D01*
X69173Y294761D01*
X69287Y294778D01*
X69402Y294792D01*
X69517Y294802D01*
X69632Y294808D01*
X69748Y294810D01*
X69071Y300228D02*
X73135Y300228D01*
X69071Y300228D02*
X68968Y300226D01*
X68866Y300220D01*
X68764Y300211D01*
X68662Y300197D01*
X68561Y300180D01*
X68461Y300158D01*
X68362Y300133D01*
X68263Y300105D01*
X68166Y300072D01*
X68070Y300036D01*
X67975Y299997D01*
X67882Y299953D01*
X67791Y299907D01*
X67702Y299856D01*
X67614Y299803D01*
X67529Y299746D01*
X67446Y299686D01*
X67365Y299623D01*
X67286Y299557D01*
X67211Y299488D01*
X67137Y299416D01*
X67067Y299342D01*
X66999Y299265D01*
X66935Y299185D01*
X66873Y299103D01*
X66815Y299019D01*
X66760Y298932D01*
X66708Y298844D01*
X66660Y298753D01*
X66615Y298661D01*
X66573Y298568D01*
X66535Y298472D01*
X66501Y298376D01*
X66470Y298278D01*
X66444Y298179D01*
X66420Y298079D01*
X66401Y297978D01*
X66386Y297877D01*
X66374Y297775D01*
X66366Y297673D01*
X66362Y297570D01*
X66362Y297468D01*
X66366Y297365D01*
X66374Y297263D01*
X66386Y297161D01*
X66401Y297060D01*
X66420Y296959D01*
X66444Y296859D01*
X66470Y296760D01*
X66501Y296662D01*
X66535Y296566D01*
X66573Y296470D01*
X66615Y296377D01*
X66660Y296285D01*
X66708Y296194D01*
X66760Y296106D01*
X66815Y296019D01*
X66873Y295935D01*
X66935Y295853D01*
X66999Y295773D01*
X67067Y295696D01*
X67137Y295622D01*
X67211Y295550D01*
X67286Y295481D01*
X67365Y295415D01*
X67446Y295352D01*
X67529Y295292D01*
X67614Y295235D01*
X67702Y295182D01*
X67791Y295131D01*
X67882Y295085D01*
X67975Y295041D01*
X68070Y295002D01*
X68166Y294966D01*
X68263Y294933D01*
X68362Y294905D01*
X68461Y294880D01*
X68561Y294858D01*
X68662Y294841D01*
X68764Y294827D01*
X68866Y294818D01*
X68968Y294812D01*
X69071Y294810D01*
X69071Y294809D02*
X71780Y294809D01*
X83227Y269409D02*
X86614Y269409D01*
X83227Y269410D02*
X83111Y269408D01*
X82996Y269402D01*
X82881Y269392D01*
X82766Y269378D01*
X82652Y269361D01*
X82538Y269339D01*
X82425Y269314D01*
X82313Y269284D01*
X82202Y269251D01*
X82093Y269214D01*
X81984Y269174D01*
X81878Y269130D01*
X81772Y269082D01*
X81669Y269030D01*
X81567Y268975D01*
X81467Y268917D01*
X81369Y268855D01*
X81274Y268790D01*
X81180Y268722D01*
X81090Y268650D01*
X81001Y268576D01*
X80915Y268498D01*
X80832Y268418D01*
X80752Y268335D01*
X80674Y268249D01*
X80600Y268160D01*
X80528Y268070D01*
X80460Y267976D01*
X80395Y267881D01*
X80333Y267783D01*
X80275Y267683D01*
X80220Y267581D01*
X80168Y267478D01*
X80120Y267372D01*
X80076Y267266D01*
X80036Y267157D01*
X79999Y267048D01*
X79966Y266937D01*
X79936Y266825D01*
X79911Y266712D01*
X79889Y266598D01*
X79872Y266484D01*
X79858Y266369D01*
X79848Y266254D01*
X79842Y266139D01*
X79840Y266023D01*
X79842Y265907D01*
X79848Y265792D01*
X79858Y265677D01*
X79872Y265562D01*
X79889Y265448D01*
X79911Y265334D01*
X79936Y265221D01*
X79966Y265109D01*
X79999Y264998D01*
X80036Y264889D01*
X80076Y264780D01*
X80120Y264674D01*
X80168Y264568D01*
X80220Y264465D01*
X80275Y264363D01*
X80333Y264263D01*
X80395Y264165D01*
X80460Y264070D01*
X80528Y263976D01*
X80600Y263886D01*
X80674Y263797D01*
X80752Y263711D01*
X80832Y263628D01*
X80915Y263548D01*
X81001Y263470D01*
X81090Y263396D01*
X81180Y263324D01*
X81274Y263256D01*
X81369Y263191D01*
X81467Y263129D01*
X81567Y263071D01*
X81669Y263016D01*
X81772Y262964D01*
X81878Y262916D01*
X81984Y262872D01*
X82093Y262832D01*
X82202Y262795D01*
X82313Y262762D01*
X82425Y262732D01*
X82538Y262707D01*
X82652Y262685D01*
X82766Y262668D01*
X82881Y262654D01*
X82996Y262644D01*
X83111Y262638D01*
X83227Y262636D01*
X86614Y262636D01*
X86614Y274828D01*
X83227Y274828D01*
X83124Y274826D01*
X83022Y274820D01*
X82920Y274811D01*
X82818Y274797D01*
X82717Y274780D01*
X82617Y274758D01*
X82518Y274733D01*
X82419Y274705D01*
X82322Y274672D01*
X82226Y274636D01*
X82131Y274597D01*
X82038Y274553D01*
X81947Y274507D01*
X81858Y274456D01*
X81770Y274403D01*
X81685Y274346D01*
X81602Y274286D01*
X81521Y274223D01*
X81442Y274157D01*
X81367Y274088D01*
X81293Y274016D01*
X81223Y273942D01*
X81155Y273865D01*
X81091Y273785D01*
X81029Y273703D01*
X80971Y273619D01*
X80916Y273532D01*
X80864Y273444D01*
X80816Y273353D01*
X80771Y273261D01*
X80729Y273168D01*
X80691Y273072D01*
X80657Y272976D01*
X80626Y272878D01*
X80600Y272779D01*
X80576Y272679D01*
X80557Y272578D01*
X80542Y272477D01*
X80530Y272375D01*
X80522Y272273D01*
X80518Y272170D01*
X80518Y272068D01*
X80522Y271965D01*
X80530Y271863D01*
X80542Y271761D01*
X80557Y271660D01*
X80576Y271559D01*
X80600Y271459D01*
X80626Y271360D01*
X80657Y271262D01*
X80691Y271166D01*
X80729Y271070D01*
X80771Y270977D01*
X80816Y270885D01*
X80864Y270794D01*
X80916Y270706D01*
X80971Y270619D01*
X81029Y270535D01*
X81091Y270453D01*
X81155Y270373D01*
X81223Y270296D01*
X81293Y270222D01*
X81367Y270150D01*
X81442Y270081D01*
X81521Y270015D01*
X81602Y269952D01*
X81685Y269892D01*
X81770Y269835D01*
X81858Y269782D01*
X81947Y269731D01*
X82038Y269685D01*
X82131Y269641D01*
X82226Y269602D01*
X82322Y269566D01*
X82419Y269533D01*
X82518Y269505D01*
X82617Y269480D01*
X82717Y269458D01*
X82818Y269441D01*
X82920Y269427D01*
X83022Y269418D01*
X83124Y269412D01*
X83227Y269410D01*
X74503Y262636D02*
X70439Y262636D01*
X70338Y262638D01*
X70237Y262644D01*
X70136Y262653D01*
X70035Y262666D01*
X69935Y262683D01*
X69836Y262704D01*
X69738Y262728D01*
X69641Y262756D01*
X69544Y262788D01*
X69449Y262823D01*
X69356Y262862D01*
X69264Y262904D01*
X69173Y262950D01*
X69085Y262999D01*
X68998Y263051D01*
X68913Y263107D01*
X68830Y263165D01*
X68750Y263227D01*
X68672Y263292D01*
X68596Y263359D01*
X68523Y263429D01*
X68453Y263502D01*
X68386Y263578D01*
X68321Y263656D01*
X68259Y263736D01*
X68201Y263819D01*
X68145Y263904D01*
X68093Y263991D01*
X68044Y264079D01*
X67998Y264170D01*
X67956Y264262D01*
X67917Y264355D01*
X67882Y264450D01*
X67850Y264547D01*
X67822Y264644D01*
X67798Y264742D01*
X67777Y264841D01*
X67760Y264941D01*
X67747Y265042D01*
X67738Y265143D01*
X67732Y265244D01*
X67730Y265345D01*
X67730Y266700D01*
X67732Y266801D01*
X67738Y266902D01*
X67747Y267003D01*
X67760Y267104D01*
X67777Y267204D01*
X67798Y267303D01*
X67822Y267401D01*
X67850Y267498D01*
X67882Y267595D01*
X67917Y267690D01*
X67956Y267783D01*
X67998Y267875D01*
X68044Y267966D01*
X68093Y268055D01*
X68145Y268141D01*
X68201Y268226D01*
X68259Y268309D01*
X68321Y268389D01*
X68386Y268467D01*
X68453Y268543D01*
X68523Y268616D01*
X68596Y268686D01*
X68672Y268753D01*
X68750Y268818D01*
X68830Y268880D01*
X68913Y268938D01*
X68998Y268994D01*
X69085Y269046D01*
X69173Y269095D01*
X69264Y269141D01*
X69356Y269183D01*
X69449Y269222D01*
X69544Y269257D01*
X69641Y269289D01*
X69738Y269317D01*
X69836Y269341D01*
X69935Y269362D01*
X70035Y269379D01*
X70136Y269392D01*
X70237Y269401D01*
X70338Y269407D01*
X70439Y269409D01*
X74503Y269409D01*
X74503Y274828D01*
X67730Y274828D01*
X83227Y244009D02*
X86614Y244009D01*
X83227Y244010D02*
X83111Y244008D01*
X82996Y244002D01*
X82881Y243992D01*
X82766Y243978D01*
X82652Y243961D01*
X82538Y243939D01*
X82425Y243914D01*
X82313Y243884D01*
X82202Y243851D01*
X82093Y243814D01*
X81984Y243774D01*
X81878Y243730D01*
X81772Y243682D01*
X81669Y243630D01*
X81567Y243575D01*
X81467Y243517D01*
X81369Y243455D01*
X81274Y243390D01*
X81180Y243322D01*
X81090Y243250D01*
X81001Y243176D01*
X80915Y243098D01*
X80832Y243018D01*
X80752Y242935D01*
X80674Y242849D01*
X80600Y242760D01*
X80528Y242670D01*
X80460Y242576D01*
X80395Y242481D01*
X80333Y242383D01*
X80275Y242283D01*
X80220Y242181D01*
X80168Y242078D01*
X80120Y241972D01*
X80076Y241866D01*
X80036Y241757D01*
X79999Y241648D01*
X79966Y241537D01*
X79936Y241425D01*
X79911Y241312D01*
X79889Y241198D01*
X79872Y241084D01*
X79858Y240969D01*
X79848Y240854D01*
X79842Y240739D01*
X79840Y240623D01*
X79842Y240507D01*
X79848Y240392D01*
X79858Y240277D01*
X79872Y240162D01*
X79889Y240048D01*
X79911Y239934D01*
X79936Y239821D01*
X79966Y239709D01*
X79999Y239598D01*
X80036Y239489D01*
X80076Y239380D01*
X80120Y239274D01*
X80168Y239168D01*
X80220Y239065D01*
X80275Y238963D01*
X80333Y238863D01*
X80395Y238765D01*
X80460Y238670D01*
X80528Y238576D01*
X80600Y238486D01*
X80674Y238397D01*
X80752Y238311D01*
X80832Y238228D01*
X80915Y238148D01*
X81001Y238070D01*
X81090Y237996D01*
X81180Y237924D01*
X81274Y237856D01*
X81369Y237791D01*
X81467Y237729D01*
X81567Y237671D01*
X81669Y237616D01*
X81772Y237564D01*
X81878Y237516D01*
X81984Y237472D01*
X82093Y237432D01*
X82202Y237395D01*
X82313Y237362D01*
X82425Y237332D01*
X82538Y237307D01*
X82652Y237285D01*
X82766Y237268D01*
X82881Y237254D01*
X82996Y237244D01*
X83111Y237238D01*
X83227Y237236D01*
X86614Y237236D01*
X86614Y249428D01*
X83227Y249428D01*
X83124Y249426D01*
X83022Y249420D01*
X82920Y249411D01*
X82818Y249397D01*
X82717Y249380D01*
X82617Y249358D01*
X82518Y249333D01*
X82419Y249305D01*
X82322Y249272D01*
X82226Y249236D01*
X82131Y249197D01*
X82038Y249153D01*
X81947Y249107D01*
X81858Y249056D01*
X81770Y249003D01*
X81685Y248946D01*
X81602Y248886D01*
X81521Y248823D01*
X81442Y248757D01*
X81367Y248688D01*
X81293Y248616D01*
X81223Y248542D01*
X81155Y248465D01*
X81091Y248385D01*
X81029Y248303D01*
X80971Y248219D01*
X80916Y248132D01*
X80864Y248044D01*
X80816Y247953D01*
X80771Y247861D01*
X80729Y247768D01*
X80691Y247672D01*
X80657Y247576D01*
X80626Y247478D01*
X80600Y247379D01*
X80576Y247279D01*
X80557Y247178D01*
X80542Y247077D01*
X80530Y246975D01*
X80522Y246873D01*
X80518Y246770D01*
X80518Y246668D01*
X80522Y246565D01*
X80530Y246463D01*
X80542Y246361D01*
X80557Y246260D01*
X80576Y246159D01*
X80600Y246059D01*
X80626Y245960D01*
X80657Y245862D01*
X80691Y245766D01*
X80729Y245670D01*
X80771Y245577D01*
X80816Y245485D01*
X80864Y245394D01*
X80916Y245306D01*
X80971Y245219D01*
X81029Y245135D01*
X81091Y245053D01*
X81155Y244973D01*
X81223Y244896D01*
X81293Y244822D01*
X81367Y244750D01*
X81442Y244681D01*
X81521Y244615D01*
X81602Y244552D01*
X81685Y244492D01*
X81770Y244435D01*
X81858Y244382D01*
X81947Y244331D01*
X82038Y244285D01*
X82131Y244241D01*
X82226Y244202D01*
X82322Y244166D01*
X82419Y244133D01*
X82518Y244105D01*
X82617Y244080D01*
X82717Y244058D01*
X82818Y244041D01*
X82920Y244027D01*
X83022Y244018D01*
X83124Y244012D01*
X83227Y244010D01*
X74503Y244009D02*
X70439Y244009D01*
X70338Y244007D01*
X70237Y244001D01*
X70136Y243992D01*
X70035Y243979D01*
X69935Y243962D01*
X69836Y243941D01*
X69738Y243917D01*
X69641Y243889D01*
X69544Y243857D01*
X69449Y243822D01*
X69356Y243783D01*
X69264Y243741D01*
X69173Y243695D01*
X69085Y243646D01*
X68998Y243594D01*
X68913Y243538D01*
X68830Y243480D01*
X68750Y243418D01*
X68672Y243353D01*
X68596Y243286D01*
X68523Y243216D01*
X68453Y243143D01*
X68386Y243067D01*
X68321Y242989D01*
X68259Y242909D01*
X68201Y242826D01*
X68145Y242741D01*
X68093Y242655D01*
X68044Y242566D01*
X67998Y242475D01*
X67956Y242383D01*
X67917Y242290D01*
X67882Y242195D01*
X67850Y242098D01*
X67822Y242001D01*
X67798Y241903D01*
X67777Y241804D01*
X67760Y241704D01*
X67747Y241603D01*
X67738Y241502D01*
X67732Y241401D01*
X67730Y241300D01*
X67730Y240623D01*
X67732Y240507D01*
X67738Y240392D01*
X67748Y240277D01*
X67762Y240162D01*
X67779Y240048D01*
X67801Y239934D01*
X67826Y239821D01*
X67856Y239709D01*
X67889Y239598D01*
X67926Y239489D01*
X67966Y239380D01*
X68010Y239274D01*
X68058Y239168D01*
X68110Y239065D01*
X68165Y238963D01*
X68223Y238863D01*
X68285Y238765D01*
X68350Y238670D01*
X68418Y238576D01*
X68490Y238486D01*
X68564Y238397D01*
X68642Y238311D01*
X68722Y238228D01*
X68805Y238148D01*
X68891Y238070D01*
X68980Y237996D01*
X69070Y237924D01*
X69164Y237856D01*
X69259Y237791D01*
X69357Y237729D01*
X69457Y237671D01*
X69559Y237616D01*
X69662Y237564D01*
X69768Y237516D01*
X69874Y237472D01*
X69983Y237432D01*
X70092Y237395D01*
X70203Y237362D01*
X70315Y237332D01*
X70428Y237307D01*
X70542Y237285D01*
X70656Y237268D01*
X70771Y237254D01*
X70886Y237244D01*
X71001Y237238D01*
X71117Y237236D01*
X71233Y237238D01*
X71348Y237244D01*
X71463Y237254D01*
X71578Y237268D01*
X71692Y237285D01*
X71806Y237307D01*
X71919Y237332D01*
X72031Y237362D01*
X72142Y237395D01*
X72251Y237432D01*
X72360Y237472D01*
X72466Y237516D01*
X72572Y237564D01*
X72675Y237616D01*
X72777Y237671D01*
X72877Y237729D01*
X72975Y237791D01*
X73070Y237856D01*
X73164Y237924D01*
X73254Y237996D01*
X73343Y238070D01*
X73429Y238148D01*
X73512Y238228D01*
X73592Y238311D01*
X73670Y238397D01*
X73744Y238486D01*
X73816Y238576D01*
X73884Y238670D01*
X73949Y238765D01*
X74011Y238863D01*
X74069Y238963D01*
X74124Y239065D01*
X74176Y239168D01*
X74224Y239274D01*
X74268Y239380D01*
X74308Y239489D01*
X74345Y239598D01*
X74378Y239709D01*
X74408Y239821D01*
X74433Y239934D01*
X74455Y240048D01*
X74472Y240162D01*
X74486Y240277D01*
X74496Y240392D01*
X74502Y240507D01*
X74504Y240623D01*
X74503Y240623D02*
X74503Y244009D01*
X74504Y244009D02*
X74502Y244156D01*
X74496Y244302D01*
X74486Y244449D01*
X74472Y244595D01*
X74454Y244741D01*
X74433Y244886D01*
X74407Y245030D01*
X74377Y245174D01*
X74344Y245317D01*
X74306Y245459D01*
X74265Y245600D01*
X74220Y245739D01*
X74172Y245878D01*
X74119Y246015D01*
X74063Y246150D01*
X74003Y246284D01*
X73940Y246417D01*
X73873Y246547D01*
X73802Y246676D01*
X73728Y246803D01*
X73651Y246927D01*
X73570Y247050D01*
X73486Y247170D01*
X73399Y247288D01*
X73309Y247404D01*
X73215Y247517D01*
X73119Y247628D01*
X73019Y247736D01*
X72917Y247841D01*
X72812Y247943D01*
X72704Y248043D01*
X72593Y248139D01*
X72480Y248233D01*
X72364Y248323D01*
X72246Y248410D01*
X72126Y248494D01*
X72004Y248575D01*
X71879Y248652D01*
X71752Y248726D01*
X71623Y248797D01*
X71493Y248864D01*
X71360Y248927D01*
X71226Y248987D01*
X71091Y249043D01*
X70954Y249096D01*
X70815Y249144D01*
X70676Y249189D01*
X70535Y249230D01*
X70393Y249268D01*
X70250Y249301D01*
X70106Y249331D01*
X69962Y249357D01*
X69817Y249378D01*
X69671Y249396D01*
X69525Y249410D01*
X69378Y249420D01*
X69232Y249426D01*
X69085Y249428D01*
X86614Y224028D02*
X82550Y211836D01*
X78486Y224028D01*
X72309Y224028D02*
X72309Y211836D01*
X73663Y211836D02*
X70954Y211836D01*
X70954Y224028D02*
X73663Y224028D01*
X65027Y224028D02*
X65027Y211836D01*
X58254Y211836D02*
X65027Y224028D01*
X58254Y224028D02*
X58254Y211836D01*
X83227Y186436D02*
X86614Y186436D01*
X83227Y186436D02*
X83111Y186438D01*
X82996Y186444D01*
X82881Y186454D01*
X82766Y186468D01*
X82652Y186485D01*
X82538Y186507D01*
X82425Y186532D01*
X82313Y186562D01*
X82202Y186595D01*
X82093Y186632D01*
X81984Y186672D01*
X81878Y186716D01*
X81772Y186764D01*
X81669Y186816D01*
X81567Y186871D01*
X81467Y186929D01*
X81369Y186991D01*
X81274Y187056D01*
X81180Y187124D01*
X81090Y187196D01*
X81001Y187270D01*
X80915Y187348D01*
X80832Y187428D01*
X80752Y187511D01*
X80674Y187597D01*
X80600Y187686D01*
X80528Y187776D01*
X80460Y187870D01*
X80395Y187965D01*
X80333Y188063D01*
X80275Y188163D01*
X80220Y188265D01*
X80168Y188368D01*
X80120Y188474D01*
X80076Y188580D01*
X80036Y188689D01*
X79999Y188798D01*
X79966Y188909D01*
X79936Y189021D01*
X79911Y189134D01*
X79889Y189248D01*
X79872Y189362D01*
X79858Y189477D01*
X79848Y189592D01*
X79842Y189707D01*
X79840Y189823D01*
X79842Y189939D01*
X79848Y190054D01*
X79858Y190169D01*
X79872Y190284D01*
X79889Y190398D01*
X79911Y190512D01*
X79936Y190625D01*
X79966Y190737D01*
X79999Y190848D01*
X80036Y190957D01*
X80076Y191066D01*
X80120Y191172D01*
X80168Y191278D01*
X80220Y191381D01*
X80275Y191483D01*
X80333Y191583D01*
X80395Y191681D01*
X80460Y191776D01*
X80528Y191870D01*
X80600Y191960D01*
X80674Y192049D01*
X80752Y192135D01*
X80832Y192218D01*
X80915Y192298D01*
X81001Y192376D01*
X81090Y192450D01*
X81180Y192522D01*
X81274Y192590D01*
X81369Y192655D01*
X81467Y192717D01*
X81567Y192775D01*
X81669Y192830D01*
X81772Y192882D01*
X81878Y192930D01*
X81984Y192974D01*
X82093Y193014D01*
X82202Y193051D01*
X82313Y193084D01*
X82425Y193114D01*
X82538Y193139D01*
X82652Y193161D01*
X82766Y193178D01*
X82881Y193192D01*
X82996Y193202D01*
X83111Y193208D01*
X83227Y193210D01*
X82550Y198628D02*
X86614Y198628D01*
X82550Y198628D02*
X82447Y198626D01*
X82345Y198620D01*
X82243Y198611D01*
X82141Y198597D01*
X82040Y198580D01*
X81940Y198558D01*
X81841Y198533D01*
X81742Y198505D01*
X81645Y198472D01*
X81549Y198436D01*
X81454Y198397D01*
X81361Y198353D01*
X81270Y198307D01*
X81181Y198256D01*
X81093Y198203D01*
X81008Y198146D01*
X80925Y198086D01*
X80844Y198023D01*
X80765Y197957D01*
X80690Y197888D01*
X80616Y197816D01*
X80546Y197742D01*
X80478Y197665D01*
X80414Y197585D01*
X80352Y197503D01*
X80294Y197419D01*
X80239Y197332D01*
X80187Y197244D01*
X80139Y197153D01*
X80094Y197061D01*
X80052Y196968D01*
X80014Y196872D01*
X79980Y196776D01*
X79949Y196678D01*
X79923Y196579D01*
X79899Y196479D01*
X79880Y196378D01*
X79865Y196277D01*
X79853Y196175D01*
X79845Y196073D01*
X79841Y195970D01*
X79841Y195868D01*
X79845Y195765D01*
X79853Y195663D01*
X79865Y195561D01*
X79880Y195460D01*
X79899Y195359D01*
X79923Y195259D01*
X79949Y195160D01*
X79980Y195062D01*
X80014Y194966D01*
X80052Y194870D01*
X80094Y194777D01*
X80139Y194685D01*
X80187Y194594D01*
X80239Y194506D01*
X80294Y194419D01*
X80352Y194335D01*
X80414Y194253D01*
X80478Y194173D01*
X80546Y194096D01*
X80616Y194022D01*
X80690Y193950D01*
X80765Y193881D01*
X80844Y193815D01*
X80925Y193752D01*
X81008Y193692D01*
X81093Y193635D01*
X81181Y193582D01*
X81270Y193531D01*
X81361Y193485D01*
X81454Y193441D01*
X81549Y193402D01*
X81645Y193366D01*
X81742Y193333D01*
X81841Y193305D01*
X81940Y193280D01*
X82040Y193258D01*
X82141Y193241D01*
X82243Y193227D01*
X82345Y193218D01*
X82447Y193212D01*
X82550Y193210D01*
X82550Y193209D02*
X85259Y193209D01*
X74490Y198628D02*
X70426Y186436D01*
X66362Y198628D01*
X61011Y186436D02*
X57624Y186436D01*
X57508Y186438D01*
X57393Y186444D01*
X57278Y186454D01*
X57163Y186468D01*
X57049Y186485D01*
X56935Y186507D01*
X56822Y186532D01*
X56710Y186562D01*
X56599Y186595D01*
X56490Y186632D01*
X56381Y186672D01*
X56275Y186716D01*
X56169Y186764D01*
X56066Y186816D01*
X55964Y186871D01*
X55864Y186929D01*
X55766Y186991D01*
X55671Y187056D01*
X55577Y187124D01*
X55487Y187196D01*
X55398Y187270D01*
X55312Y187348D01*
X55229Y187428D01*
X55149Y187511D01*
X55071Y187597D01*
X54997Y187686D01*
X54925Y187776D01*
X54857Y187870D01*
X54792Y187965D01*
X54730Y188063D01*
X54672Y188163D01*
X54617Y188265D01*
X54565Y188368D01*
X54517Y188474D01*
X54473Y188580D01*
X54433Y188689D01*
X54396Y188798D01*
X54363Y188909D01*
X54333Y189021D01*
X54308Y189134D01*
X54286Y189248D01*
X54269Y189362D01*
X54255Y189477D01*
X54245Y189592D01*
X54239Y189707D01*
X54237Y189823D01*
X54239Y189939D01*
X54245Y190054D01*
X54255Y190169D01*
X54269Y190284D01*
X54286Y190398D01*
X54308Y190512D01*
X54333Y190625D01*
X54363Y190737D01*
X54396Y190848D01*
X54433Y190957D01*
X54473Y191066D01*
X54517Y191172D01*
X54565Y191278D01*
X54617Y191381D01*
X54672Y191483D01*
X54730Y191583D01*
X54792Y191681D01*
X54857Y191776D01*
X54925Y191870D01*
X54997Y191960D01*
X55071Y192049D01*
X55149Y192135D01*
X55229Y192218D01*
X55312Y192298D01*
X55398Y192376D01*
X55487Y192450D01*
X55577Y192522D01*
X55671Y192590D01*
X55766Y192655D01*
X55864Y192717D01*
X55964Y192775D01*
X56066Y192830D01*
X56169Y192882D01*
X56275Y192930D01*
X56381Y192974D01*
X56490Y193014D01*
X56599Y193051D01*
X56710Y193084D01*
X56822Y193114D01*
X56935Y193139D01*
X57049Y193161D01*
X57163Y193178D01*
X57278Y193192D01*
X57393Y193202D01*
X57508Y193208D01*
X57624Y193210D01*
X56947Y198628D02*
X61011Y198628D01*
X56947Y198628D02*
X56844Y198626D01*
X56742Y198620D01*
X56640Y198611D01*
X56538Y198597D01*
X56437Y198580D01*
X56337Y198558D01*
X56238Y198533D01*
X56139Y198505D01*
X56042Y198472D01*
X55946Y198436D01*
X55851Y198397D01*
X55758Y198353D01*
X55667Y198307D01*
X55578Y198256D01*
X55490Y198203D01*
X55405Y198146D01*
X55322Y198086D01*
X55241Y198023D01*
X55162Y197957D01*
X55087Y197888D01*
X55013Y197816D01*
X54943Y197742D01*
X54875Y197665D01*
X54811Y197585D01*
X54749Y197503D01*
X54691Y197419D01*
X54636Y197332D01*
X54584Y197244D01*
X54536Y197153D01*
X54491Y197061D01*
X54449Y196968D01*
X54411Y196872D01*
X54377Y196776D01*
X54346Y196678D01*
X54320Y196579D01*
X54296Y196479D01*
X54277Y196378D01*
X54262Y196277D01*
X54250Y196175D01*
X54242Y196073D01*
X54238Y195970D01*
X54238Y195868D01*
X54242Y195765D01*
X54250Y195663D01*
X54262Y195561D01*
X54277Y195460D01*
X54296Y195359D01*
X54320Y195259D01*
X54346Y195160D01*
X54377Y195062D01*
X54411Y194966D01*
X54449Y194870D01*
X54491Y194777D01*
X54536Y194685D01*
X54584Y194594D01*
X54636Y194506D01*
X54691Y194419D01*
X54749Y194335D01*
X54811Y194253D01*
X54875Y194173D01*
X54943Y194096D01*
X55013Y194022D01*
X55087Y193950D01*
X55162Y193881D01*
X55241Y193815D01*
X55322Y193752D01*
X55405Y193692D01*
X55490Y193635D01*
X55578Y193582D01*
X55667Y193531D01*
X55758Y193485D01*
X55851Y193441D01*
X55946Y193402D01*
X56042Y193366D01*
X56139Y193333D01*
X56238Y193305D01*
X56337Y193280D01*
X56437Y193258D01*
X56538Y193241D01*
X56640Y193227D01*
X56742Y193218D01*
X56844Y193212D01*
X56947Y193210D01*
X56947Y193209D02*
X59656Y193209D01*
X79841Y167809D02*
X81873Y167809D01*
X79841Y167809D02*
X79841Y161036D01*
X83905Y161036D01*
X84006Y161038D01*
X84107Y161044D01*
X84208Y161053D01*
X84309Y161066D01*
X84409Y161083D01*
X84508Y161104D01*
X84606Y161128D01*
X84703Y161156D01*
X84800Y161188D01*
X84895Y161223D01*
X84988Y161262D01*
X85080Y161304D01*
X85171Y161350D01*
X85259Y161399D01*
X85346Y161451D01*
X85431Y161507D01*
X85514Y161565D01*
X85594Y161627D01*
X85672Y161692D01*
X85748Y161759D01*
X85821Y161829D01*
X85891Y161902D01*
X85958Y161978D01*
X86023Y162056D01*
X86085Y162136D01*
X86143Y162219D01*
X86199Y162304D01*
X86251Y162390D01*
X86300Y162479D01*
X86346Y162570D01*
X86388Y162662D01*
X86427Y162755D01*
X86462Y162850D01*
X86494Y162947D01*
X86522Y163044D01*
X86546Y163142D01*
X86567Y163241D01*
X86584Y163341D01*
X86597Y163442D01*
X86606Y163543D01*
X86612Y163644D01*
X86614Y163745D01*
X86614Y170519D01*
X86612Y170620D01*
X86606Y170721D01*
X86597Y170822D01*
X86584Y170923D01*
X86567Y171023D01*
X86546Y171122D01*
X86522Y171220D01*
X86494Y171317D01*
X86462Y171414D01*
X86427Y171509D01*
X86388Y171602D01*
X86346Y171694D01*
X86300Y171785D01*
X86251Y171874D01*
X86199Y171960D01*
X86143Y172045D01*
X86085Y172128D01*
X86023Y172208D01*
X85958Y172286D01*
X85891Y172362D01*
X85821Y172435D01*
X85748Y172505D01*
X85672Y172572D01*
X85594Y172637D01*
X85514Y172699D01*
X85431Y172757D01*
X85346Y172813D01*
X85260Y172865D01*
X85171Y172914D01*
X85080Y172960D01*
X84988Y173002D01*
X84895Y173041D01*
X84800Y173076D01*
X84703Y173108D01*
X84606Y173136D01*
X84508Y173160D01*
X84409Y173181D01*
X84309Y173198D01*
X84208Y173211D01*
X84107Y173220D01*
X84006Y173226D01*
X83905Y173228D01*
X79841Y173228D01*
X72959Y173228D02*
X72959Y161036D01*
X66186Y161036D02*
X72959Y173228D01*
X66186Y173228D02*
X66186Y161036D01*
X59304Y161036D02*
X59304Y173228D01*
X55917Y173228D01*
X55801Y173226D01*
X55686Y173220D01*
X55571Y173210D01*
X55456Y173196D01*
X55342Y173179D01*
X55228Y173157D01*
X55115Y173132D01*
X55003Y173102D01*
X54892Y173069D01*
X54783Y173032D01*
X54674Y172992D01*
X54568Y172948D01*
X54462Y172900D01*
X54359Y172848D01*
X54257Y172793D01*
X54157Y172735D01*
X54059Y172673D01*
X53964Y172608D01*
X53870Y172540D01*
X53780Y172468D01*
X53691Y172394D01*
X53605Y172316D01*
X53522Y172236D01*
X53442Y172153D01*
X53364Y172067D01*
X53290Y171978D01*
X53218Y171888D01*
X53150Y171794D01*
X53085Y171699D01*
X53023Y171601D01*
X52965Y171501D01*
X52910Y171399D01*
X52858Y171296D01*
X52810Y171190D01*
X52766Y171084D01*
X52726Y170975D01*
X52689Y170866D01*
X52656Y170755D01*
X52626Y170643D01*
X52601Y170530D01*
X52579Y170416D01*
X52562Y170302D01*
X52548Y170187D01*
X52538Y170072D01*
X52532Y169957D01*
X52530Y169841D01*
X52531Y169841D02*
X52531Y164423D01*
X52530Y164423D02*
X52532Y164307D01*
X52538Y164192D01*
X52548Y164077D01*
X52562Y163962D01*
X52579Y163848D01*
X52601Y163734D01*
X52626Y163621D01*
X52656Y163509D01*
X52689Y163398D01*
X52726Y163289D01*
X52766Y163180D01*
X52810Y163074D01*
X52858Y162968D01*
X52910Y162865D01*
X52965Y162763D01*
X53023Y162663D01*
X53085Y162565D01*
X53150Y162470D01*
X53218Y162376D01*
X53290Y162286D01*
X53364Y162197D01*
X53442Y162111D01*
X53522Y162028D01*
X53605Y161948D01*
X53691Y161870D01*
X53780Y161796D01*
X53870Y161724D01*
X53964Y161656D01*
X54059Y161591D01*
X54157Y161529D01*
X54257Y161471D01*
X54359Y161416D01*
X54462Y161364D01*
X54568Y161316D01*
X54674Y161272D01*
X54783Y161232D01*
X54892Y161195D01*
X55003Y161162D01*
X55115Y161132D01*
X55228Y161107D01*
X55342Y161085D01*
X55456Y161068D01*
X55571Y161054D01*
X55686Y161044D01*
X55801Y161038D01*
X55917Y161036D01*
X59304Y161036D01*
X79841Y142409D02*
X81873Y142409D01*
X79841Y142409D02*
X79841Y135636D01*
X83905Y135636D01*
X84006Y135638D01*
X84107Y135644D01*
X84208Y135653D01*
X84309Y135666D01*
X84409Y135683D01*
X84508Y135704D01*
X84606Y135728D01*
X84703Y135756D01*
X84800Y135788D01*
X84895Y135823D01*
X84988Y135862D01*
X85080Y135904D01*
X85171Y135950D01*
X85259Y135999D01*
X85346Y136051D01*
X85431Y136107D01*
X85514Y136165D01*
X85594Y136227D01*
X85672Y136292D01*
X85748Y136359D01*
X85821Y136429D01*
X85891Y136502D01*
X85958Y136578D01*
X86023Y136656D01*
X86085Y136736D01*
X86143Y136819D01*
X86199Y136904D01*
X86251Y136990D01*
X86300Y137079D01*
X86346Y137170D01*
X86388Y137262D01*
X86427Y137355D01*
X86462Y137450D01*
X86494Y137547D01*
X86522Y137644D01*
X86546Y137742D01*
X86567Y137841D01*
X86584Y137941D01*
X86597Y138042D01*
X86606Y138143D01*
X86612Y138244D01*
X86614Y138345D01*
X86614Y145119D01*
X86612Y145220D01*
X86606Y145321D01*
X86597Y145422D01*
X86584Y145523D01*
X86567Y145623D01*
X86546Y145722D01*
X86522Y145820D01*
X86494Y145917D01*
X86462Y146014D01*
X86427Y146109D01*
X86388Y146202D01*
X86346Y146294D01*
X86300Y146385D01*
X86251Y146474D01*
X86199Y146560D01*
X86143Y146645D01*
X86085Y146728D01*
X86023Y146808D01*
X85958Y146886D01*
X85891Y146962D01*
X85821Y147035D01*
X85748Y147105D01*
X85672Y147172D01*
X85594Y147237D01*
X85514Y147299D01*
X85431Y147357D01*
X85346Y147413D01*
X85260Y147465D01*
X85171Y147514D01*
X85080Y147560D01*
X84988Y147602D01*
X84895Y147641D01*
X84800Y147676D01*
X84703Y147708D01*
X84606Y147736D01*
X84508Y147760D01*
X84409Y147781D01*
X84309Y147798D01*
X84208Y147811D01*
X84107Y147820D01*
X84006Y147826D01*
X83905Y147828D01*
X79841Y147828D01*
X72959Y147828D02*
X72959Y135636D01*
X66186Y135636D02*
X72959Y147828D01*
X66186Y147828D02*
X66186Y135636D01*
X59304Y135636D02*
X59304Y147828D01*
X55917Y147828D01*
X55801Y147826D01*
X55686Y147820D01*
X55571Y147810D01*
X55456Y147796D01*
X55342Y147779D01*
X55228Y147757D01*
X55115Y147732D01*
X55003Y147702D01*
X54892Y147669D01*
X54783Y147632D01*
X54674Y147592D01*
X54568Y147548D01*
X54462Y147500D01*
X54359Y147448D01*
X54257Y147393D01*
X54157Y147335D01*
X54059Y147273D01*
X53964Y147208D01*
X53870Y147140D01*
X53780Y147068D01*
X53691Y146994D01*
X53605Y146916D01*
X53522Y146836D01*
X53442Y146753D01*
X53364Y146667D01*
X53290Y146578D01*
X53218Y146488D01*
X53150Y146394D01*
X53085Y146299D01*
X53023Y146201D01*
X52965Y146101D01*
X52910Y145999D01*
X52858Y145896D01*
X52810Y145790D01*
X52766Y145684D01*
X52726Y145575D01*
X52689Y145466D01*
X52656Y145355D01*
X52626Y145243D01*
X52601Y145130D01*
X52579Y145016D01*
X52562Y144902D01*
X52548Y144787D01*
X52538Y144672D01*
X52532Y144557D01*
X52530Y144441D01*
X52531Y144441D02*
X52531Y139023D01*
X52530Y139023D02*
X52532Y138907D01*
X52538Y138792D01*
X52548Y138677D01*
X52562Y138562D01*
X52579Y138448D01*
X52601Y138334D01*
X52626Y138221D01*
X52656Y138109D01*
X52689Y137998D01*
X52726Y137889D01*
X52766Y137780D01*
X52810Y137674D01*
X52858Y137568D01*
X52910Y137465D01*
X52965Y137363D01*
X53023Y137263D01*
X53085Y137165D01*
X53150Y137070D01*
X53218Y136976D01*
X53290Y136886D01*
X53364Y136797D01*
X53442Y136711D01*
X53522Y136628D01*
X53605Y136548D01*
X53691Y136470D01*
X53780Y136396D01*
X53870Y136324D01*
X53964Y136256D01*
X54059Y136191D01*
X54157Y136129D01*
X54257Y136071D01*
X54359Y136016D01*
X54462Y135964D01*
X54568Y135916D01*
X54674Y135872D01*
X54783Y135832D01*
X54892Y135795D01*
X55003Y135762D01*
X55115Y135732D01*
X55228Y135707D01*
X55342Y135685D01*
X55456Y135668D01*
X55571Y135654D01*
X55686Y135644D01*
X55801Y135638D01*
X55917Y135636D01*
X59304Y135636D01*
X436985Y366945D02*
X440372Y366945D01*
X436985Y366946D02*
X436869Y366944D01*
X436754Y366938D01*
X436639Y366928D01*
X436524Y366914D01*
X436410Y366897D01*
X436296Y366875D01*
X436183Y366850D01*
X436071Y366820D01*
X435960Y366787D01*
X435851Y366750D01*
X435742Y366710D01*
X435636Y366666D01*
X435530Y366618D01*
X435427Y366566D01*
X435325Y366511D01*
X435225Y366453D01*
X435127Y366391D01*
X435032Y366326D01*
X434938Y366258D01*
X434848Y366186D01*
X434759Y366112D01*
X434673Y366034D01*
X434590Y365954D01*
X434510Y365871D01*
X434432Y365785D01*
X434358Y365696D01*
X434286Y365606D01*
X434218Y365512D01*
X434153Y365417D01*
X434091Y365319D01*
X434033Y365219D01*
X433978Y365117D01*
X433926Y365014D01*
X433878Y364908D01*
X433834Y364802D01*
X433794Y364693D01*
X433757Y364584D01*
X433724Y364473D01*
X433694Y364361D01*
X433669Y364248D01*
X433647Y364134D01*
X433630Y364020D01*
X433616Y363905D01*
X433606Y363790D01*
X433600Y363675D01*
X433598Y363559D01*
X433600Y363443D01*
X433606Y363328D01*
X433616Y363213D01*
X433630Y363098D01*
X433647Y362984D01*
X433669Y362870D01*
X433694Y362757D01*
X433724Y362645D01*
X433757Y362534D01*
X433794Y362425D01*
X433834Y362316D01*
X433878Y362210D01*
X433926Y362104D01*
X433978Y362001D01*
X434033Y361899D01*
X434091Y361799D01*
X434153Y361701D01*
X434218Y361606D01*
X434286Y361512D01*
X434358Y361422D01*
X434432Y361333D01*
X434510Y361247D01*
X434590Y361164D01*
X434673Y361084D01*
X434759Y361006D01*
X434848Y360932D01*
X434938Y360860D01*
X435032Y360792D01*
X435127Y360727D01*
X435225Y360665D01*
X435325Y360607D01*
X435427Y360552D01*
X435530Y360500D01*
X435636Y360452D01*
X435742Y360408D01*
X435851Y360368D01*
X435960Y360331D01*
X436071Y360298D01*
X436183Y360268D01*
X436296Y360243D01*
X436410Y360221D01*
X436524Y360204D01*
X436639Y360190D01*
X436754Y360180D01*
X436869Y360174D01*
X436985Y360172D01*
X440372Y360172D01*
X440372Y372364D01*
X436985Y372364D01*
X436882Y372362D01*
X436780Y372356D01*
X436678Y372347D01*
X436576Y372333D01*
X436475Y372316D01*
X436375Y372294D01*
X436276Y372269D01*
X436177Y372241D01*
X436080Y372208D01*
X435984Y372172D01*
X435889Y372133D01*
X435796Y372089D01*
X435705Y372043D01*
X435616Y371992D01*
X435528Y371939D01*
X435443Y371882D01*
X435360Y371822D01*
X435279Y371759D01*
X435200Y371693D01*
X435125Y371624D01*
X435051Y371552D01*
X434981Y371478D01*
X434913Y371401D01*
X434849Y371321D01*
X434787Y371239D01*
X434729Y371155D01*
X434674Y371068D01*
X434622Y370980D01*
X434574Y370889D01*
X434529Y370797D01*
X434487Y370704D01*
X434449Y370608D01*
X434415Y370512D01*
X434384Y370414D01*
X434358Y370315D01*
X434334Y370215D01*
X434315Y370114D01*
X434300Y370013D01*
X434288Y369911D01*
X434280Y369809D01*
X434276Y369706D01*
X434276Y369604D01*
X434280Y369501D01*
X434288Y369399D01*
X434300Y369297D01*
X434315Y369196D01*
X434334Y369095D01*
X434358Y368995D01*
X434384Y368896D01*
X434415Y368798D01*
X434449Y368702D01*
X434487Y368606D01*
X434529Y368513D01*
X434574Y368421D01*
X434622Y368330D01*
X434674Y368242D01*
X434729Y368155D01*
X434787Y368071D01*
X434849Y367989D01*
X434913Y367909D01*
X434981Y367832D01*
X435051Y367758D01*
X435125Y367686D01*
X435200Y367617D01*
X435279Y367551D01*
X435360Y367488D01*
X435443Y367428D01*
X435528Y367371D01*
X435616Y367318D01*
X435705Y367267D01*
X435796Y367221D01*
X435889Y367177D01*
X435984Y367138D01*
X436080Y367102D01*
X436177Y367069D01*
X436276Y367041D01*
X436375Y367016D01*
X436475Y366994D01*
X436576Y366977D01*
X436678Y366963D01*
X436780Y366954D01*
X436882Y366948D01*
X436985Y366946D01*
X428261Y369655D02*
X424874Y372364D01*
X424874Y360172D01*
X421488Y360172D02*
X428261Y360172D01*
X415459Y360172D02*
X411395Y360172D01*
X411294Y360174D01*
X411193Y360180D01*
X411092Y360189D01*
X410991Y360202D01*
X410891Y360219D01*
X410792Y360240D01*
X410694Y360264D01*
X410597Y360292D01*
X410500Y360324D01*
X410405Y360359D01*
X410312Y360398D01*
X410220Y360440D01*
X410129Y360486D01*
X410041Y360535D01*
X409954Y360587D01*
X409869Y360643D01*
X409786Y360701D01*
X409706Y360763D01*
X409628Y360828D01*
X409552Y360895D01*
X409479Y360965D01*
X409409Y361038D01*
X409342Y361114D01*
X409277Y361192D01*
X409215Y361272D01*
X409157Y361355D01*
X409101Y361440D01*
X409049Y361527D01*
X409000Y361615D01*
X408954Y361706D01*
X408912Y361798D01*
X408873Y361891D01*
X408838Y361986D01*
X408806Y362083D01*
X408778Y362180D01*
X408754Y362278D01*
X408733Y362377D01*
X408716Y362477D01*
X408703Y362578D01*
X408694Y362679D01*
X408688Y362780D01*
X408686Y362881D01*
X408686Y364236D01*
X408688Y364337D01*
X408694Y364438D01*
X408703Y364539D01*
X408716Y364640D01*
X408733Y364740D01*
X408754Y364839D01*
X408778Y364937D01*
X408806Y365034D01*
X408838Y365131D01*
X408873Y365226D01*
X408912Y365319D01*
X408954Y365411D01*
X409000Y365502D01*
X409049Y365591D01*
X409101Y365677D01*
X409157Y365762D01*
X409215Y365845D01*
X409277Y365925D01*
X409342Y366003D01*
X409409Y366079D01*
X409479Y366152D01*
X409552Y366222D01*
X409628Y366289D01*
X409706Y366354D01*
X409786Y366416D01*
X409869Y366474D01*
X409954Y366530D01*
X410041Y366582D01*
X410129Y366631D01*
X410220Y366677D01*
X410312Y366719D01*
X410405Y366758D01*
X410500Y366793D01*
X410597Y366825D01*
X410694Y366853D01*
X410792Y366877D01*
X410891Y366898D01*
X410991Y366915D01*
X411092Y366928D01*
X411193Y366937D01*
X411294Y366943D01*
X411395Y366945D01*
X415459Y366945D01*
X415459Y372364D01*
X408686Y372364D01*
X436985Y341545D02*
X440372Y341545D01*
X436985Y341546D02*
X436869Y341544D01*
X436754Y341538D01*
X436639Y341528D01*
X436524Y341514D01*
X436410Y341497D01*
X436296Y341475D01*
X436183Y341450D01*
X436071Y341420D01*
X435960Y341387D01*
X435851Y341350D01*
X435742Y341310D01*
X435636Y341266D01*
X435530Y341218D01*
X435427Y341166D01*
X435325Y341111D01*
X435225Y341053D01*
X435127Y340991D01*
X435032Y340926D01*
X434938Y340858D01*
X434848Y340786D01*
X434759Y340712D01*
X434673Y340634D01*
X434590Y340554D01*
X434510Y340471D01*
X434432Y340385D01*
X434358Y340296D01*
X434286Y340206D01*
X434218Y340112D01*
X434153Y340017D01*
X434091Y339919D01*
X434033Y339819D01*
X433978Y339717D01*
X433926Y339614D01*
X433878Y339508D01*
X433834Y339402D01*
X433794Y339293D01*
X433757Y339184D01*
X433724Y339073D01*
X433694Y338961D01*
X433669Y338848D01*
X433647Y338734D01*
X433630Y338620D01*
X433616Y338505D01*
X433606Y338390D01*
X433600Y338275D01*
X433598Y338159D01*
X433600Y338043D01*
X433606Y337928D01*
X433616Y337813D01*
X433630Y337698D01*
X433647Y337584D01*
X433669Y337470D01*
X433694Y337357D01*
X433724Y337245D01*
X433757Y337134D01*
X433794Y337025D01*
X433834Y336916D01*
X433878Y336810D01*
X433926Y336704D01*
X433978Y336601D01*
X434033Y336499D01*
X434091Y336399D01*
X434153Y336301D01*
X434218Y336206D01*
X434286Y336112D01*
X434358Y336022D01*
X434432Y335933D01*
X434510Y335847D01*
X434590Y335764D01*
X434673Y335684D01*
X434759Y335606D01*
X434848Y335532D01*
X434938Y335460D01*
X435032Y335392D01*
X435127Y335327D01*
X435225Y335265D01*
X435325Y335207D01*
X435427Y335152D01*
X435530Y335100D01*
X435636Y335052D01*
X435742Y335008D01*
X435851Y334968D01*
X435960Y334931D01*
X436071Y334898D01*
X436183Y334868D01*
X436296Y334843D01*
X436410Y334821D01*
X436524Y334804D01*
X436639Y334790D01*
X436754Y334780D01*
X436869Y334774D01*
X436985Y334772D01*
X440372Y334772D01*
X440372Y346964D01*
X436985Y346964D01*
X436882Y346962D01*
X436780Y346956D01*
X436678Y346947D01*
X436576Y346933D01*
X436475Y346916D01*
X436375Y346894D01*
X436276Y346869D01*
X436177Y346841D01*
X436080Y346808D01*
X435984Y346772D01*
X435889Y346733D01*
X435796Y346689D01*
X435705Y346643D01*
X435616Y346592D01*
X435528Y346539D01*
X435443Y346482D01*
X435360Y346422D01*
X435279Y346359D01*
X435200Y346293D01*
X435125Y346224D01*
X435051Y346152D01*
X434981Y346078D01*
X434913Y346001D01*
X434849Y345921D01*
X434787Y345839D01*
X434729Y345755D01*
X434674Y345668D01*
X434622Y345580D01*
X434574Y345489D01*
X434529Y345397D01*
X434487Y345304D01*
X434449Y345208D01*
X434415Y345112D01*
X434384Y345014D01*
X434358Y344915D01*
X434334Y344815D01*
X434315Y344714D01*
X434300Y344613D01*
X434288Y344511D01*
X434280Y344409D01*
X434276Y344306D01*
X434276Y344204D01*
X434280Y344101D01*
X434288Y343999D01*
X434300Y343897D01*
X434315Y343796D01*
X434334Y343695D01*
X434358Y343595D01*
X434384Y343496D01*
X434415Y343398D01*
X434449Y343302D01*
X434487Y343206D01*
X434529Y343113D01*
X434574Y343021D01*
X434622Y342930D01*
X434674Y342842D01*
X434729Y342755D01*
X434787Y342671D01*
X434849Y342589D01*
X434913Y342509D01*
X434981Y342432D01*
X435051Y342358D01*
X435125Y342286D01*
X435200Y342217D01*
X435279Y342151D01*
X435360Y342088D01*
X435443Y342028D01*
X435528Y341971D01*
X435616Y341918D01*
X435705Y341867D01*
X435796Y341821D01*
X435889Y341777D01*
X435984Y341738D01*
X436080Y341702D01*
X436177Y341669D01*
X436276Y341641D01*
X436375Y341616D01*
X436475Y341594D01*
X436576Y341577D01*
X436678Y341563D01*
X436780Y341554D01*
X436882Y341548D01*
X436985Y341546D01*
X428261Y344255D02*
X424874Y346964D01*
X424874Y334772D01*
X421488Y334772D02*
X428261Y334772D01*
X415459Y337481D02*
X412750Y346964D01*
X415459Y337481D02*
X408686Y337481D01*
X410718Y334772D02*
X410718Y340191D01*
X436985Y316145D02*
X440372Y316145D01*
X436985Y316146D02*
X436869Y316144D01*
X436754Y316138D01*
X436639Y316128D01*
X436524Y316114D01*
X436410Y316097D01*
X436296Y316075D01*
X436183Y316050D01*
X436071Y316020D01*
X435960Y315987D01*
X435851Y315950D01*
X435742Y315910D01*
X435636Y315866D01*
X435530Y315818D01*
X435427Y315766D01*
X435325Y315711D01*
X435225Y315653D01*
X435127Y315591D01*
X435032Y315526D01*
X434938Y315458D01*
X434848Y315386D01*
X434759Y315312D01*
X434673Y315234D01*
X434590Y315154D01*
X434510Y315071D01*
X434432Y314985D01*
X434358Y314896D01*
X434286Y314806D01*
X434218Y314712D01*
X434153Y314617D01*
X434091Y314519D01*
X434033Y314419D01*
X433978Y314317D01*
X433926Y314214D01*
X433878Y314108D01*
X433834Y314002D01*
X433794Y313893D01*
X433757Y313784D01*
X433724Y313673D01*
X433694Y313561D01*
X433669Y313448D01*
X433647Y313334D01*
X433630Y313220D01*
X433616Y313105D01*
X433606Y312990D01*
X433600Y312875D01*
X433598Y312759D01*
X433600Y312643D01*
X433606Y312528D01*
X433616Y312413D01*
X433630Y312298D01*
X433647Y312184D01*
X433669Y312070D01*
X433694Y311957D01*
X433724Y311845D01*
X433757Y311734D01*
X433794Y311625D01*
X433834Y311516D01*
X433878Y311410D01*
X433926Y311304D01*
X433978Y311201D01*
X434033Y311099D01*
X434091Y310999D01*
X434153Y310901D01*
X434218Y310806D01*
X434286Y310712D01*
X434358Y310622D01*
X434432Y310533D01*
X434510Y310447D01*
X434590Y310364D01*
X434673Y310284D01*
X434759Y310206D01*
X434848Y310132D01*
X434938Y310060D01*
X435032Y309992D01*
X435127Y309927D01*
X435225Y309865D01*
X435325Y309807D01*
X435427Y309752D01*
X435530Y309700D01*
X435636Y309652D01*
X435742Y309608D01*
X435851Y309568D01*
X435960Y309531D01*
X436071Y309498D01*
X436183Y309468D01*
X436296Y309443D01*
X436410Y309421D01*
X436524Y309404D01*
X436639Y309390D01*
X436754Y309380D01*
X436869Y309374D01*
X436985Y309372D01*
X440372Y309372D01*
X440372Y321564D01*
X436985Y321564D01*
X436882Y321562D01*
X436780Y321556D01*
X436678Y321547D01*
X436576Y321533D01*
X436475Y321516D01*
X436375Y321494D01*
X436276Y321469D01*
X436177Y321441D01*
X436080Y321408D01*
X435984Y321372D01*
X435889Y321333D01*
X435796Y321289D01*
X435705Y321243D01*
X435616Y321192D01*
X435528Y321139D01*
X435443Y321082D01*
X435360Y321022D01*
X435279Y320959D01*
X435200Y320893D01*
X435125Y320824D01*
X435051Y320752D01*
X434981Y320678D01*
X434913Y320601D01*
X434849Y320521D01*
X434787Y320439D01*
X434729Y320355D01*
X434674Y320268D01*
X434622Y320180D01*
X434574Y320089D01*
X434529Y319997D01*
X434487Y319904D01*
X434449Y319808D01*
X434415Y319712D01*
X434384Y319614D01*
X434358Y319515D01*
X434334Y319415D01*
X434315Y319314D01*
X434300Y319213D01*
X434288Y319111D01*
X434280Y319009D01*
X434276Y318906D01*
X434276Y318804D01*
X434280Y318701D01*
X434288Y318599D01*
X434300Y318497D01*
X434315Y318396D01*
X434334Y318295D01*
X434358Y318195D01*
X434384Y318096D01*
X434415Y317998D01*
X434449Y317902D01*
X434487Y317806D01*
X434529Y317713D01*
X434574Y317621D01*
X434622Y317530D01*
X434674Y317442D01*
X434729Y317355D01*
X434787Y317271D01*
X434849Y317189D01*
X434913Y317109D01*
X434981Y317032D01*
X435051Y316958D01*
X435125Y316886D01*
X435200Y316817D01*
X435279Y316751D01*
X435360Y316688D01*
X435443Y316628D01*
X435528Y316571D01*
X435616Y316518D01*
X435705Y316467D01*
X435796Y316421D01*
X435889Y316377D01*
X435984Y316338D01*
X436080Y316302D01*
X436177Y316269D01*
X436276Y316241D01*
X436375Y316216D01*
X436475Y316194D01*
X436576Y316177D01*
X436678Y316163D01*
X436780Y316154D01*
X436882Y316148D01*
X436985Y316146D01*
X428261Y318855D02*
X424874Y321564D01*
X424874Y309372D01*
X421488Y309372D02*
X428261Y309372D01*
X415459Y309372D02*
X412073Y309372D01*
X411957Y309374D01*
X411842Y309380D01*
X411727Y309390D01*
X411612Y309404D01*
X411498Y309421D01*
X411384Y309443D01*
X411271Y309468D01*
X411159Y309498D01*
X411048Y309531D01*
X410939Y309568D01*
X410830Y309608D01*
X410724Y309652D01*
X410618Y309700D01*
X410515Y309752D01*
X410413Y309807D01*
X410313Y309865D01*
X410215Y309927D01*
X410120Y309992D01*
X410026Y310060D01*
X409936Y310132D01*
X409847Y310206D01*
X409761Y310284D01*
X409678Y310364D01*
X409598Y310447D01*
X409520Y310533D01*
X409446Y310622D01*
X409374Y310712D01*
X409306Y310806D01*
X409241Y310901D01*
X409179Y310999D01*
X409121Y311099D01*
X409066Y311201D01*
X409014Y311304D01*
X408966Y311410D01*
X408922Y311516D01*
X408882Y311625D01*
X408845Y311734D01*
X408812Y311845D01*
X408782Y311957D01*
X408757Y312070D01*
X408735Y312184D01*
X408718Y312298D01*
X408704Y312413D01*
X408694Y312528D01*
X408688Y312643D01*
X408686Y312759D01*
X408688Y312875D01*
X408694Y312990D01*
X408704Y313105D01*
X408718Y313220D01*
X408735Y313334D01*
X408757Y313448D01*
X408782Y313561D01*
X408812Y313673D01*
X408845Y313784D01*
X408882Y313893D01*
X408922Y314002D01*
X408966Y314108D01*
X409014Y314214D01*
X409066Y314317D01*
X409121Y314419D01*
X409179Y314519D01*
X409241Y314617D01*
X409306Y314712D01*
X409374Y314806D01*
X409446Y314896D01*
X409520Y314985D01*
X409598Y315071D01*
X409678Y315154D01*
X409761Y315234D01*
X409847Y315312D01*
X409936Y315386D01*
X410026Y315458D01*
X410120Y315526D01*
X410215Y315591D01*
X410313Y315653D01*
X410413Y315711D01*
X410515Y315766D01*
X410618Y315818D01*
X410724Y315866D01*
X410830Y315910D01*
X410939Y315950D01*
X411048Y315987D01*
X411159Y316020D01*
X411271Y316050D01*
X411384Y316075D01*
X411498Y316097D01*
X411612Y316114D01*
X411727Y316128D01*
X411842Y316138D01*
X411957Y316144D01*
X412073Y316146D01*
X411395Y321564D02*
X415459Y321564D01*
X411395Y321564D02*
X411292Y321562D01*
X411190Y321556D01*
X411088Y321547D01*
X410986Y321533D01*
X410885Y321516D01*
X410785Y321494D01*
X410686Y321469D01*
X410587Y321441D01*
X410490Y321408D01*
X410394Y321372D01*
X410299Y321333D01*
X410206Y321289D01*
X410115Y321243D01*
X410026Y321192D01*
X409938Y321139D01*
X409853Y321082D01*
X409770Y321022D01*
X409689Y320959D01*
X409610Y320893D01*
X409535Y320824D01*
X409461Y320752D01*
X409391Y320678D01*
X409323Y320601D01*
X409259Y320521D01*
X409197Y320439D01*
X409139Y320355D01*
X409084Y320268D01*
X409032Y320180D01*
X408984Y320089D01*
X408939Y319997D01*
X408897Y319904D01*
X408859Y319808D01*
X408825Y319712D01*
X408794Y319614D01*
X408768Y319515D01*
X408744Y319415D01*
X408725Y319314D01*
X408710Y319213D01*
X408698Y319111D01*
X408690Y319009D01*
X408686Y318906D01*
X408686Y318804D01*
X408690Y318701D01*
X408698Y318599D01*
X408710Y318497D01*
X408725Y318396D01*
X408744Y318295D01*
X408768Y318195D01*
X408794Y318096D01*
X408825Y317998D01*
X408859Y317902D01*
X408897Y317806D01*
X408939Y317713D01*
X408984Y317621D01*
X409032Y317530D01*
X409084Y317442D01*
X409139Y317355D01*
X409197Y317271D01*
X409259Y317189D01*
X409323Y317109D01*
X409391Y317032D01*
X409461Y316958D01*
X409535Y316886D01*
X409610Y316817D01*
X409689Y316751D01*
X409770Y316688D01*
X409853Y316628D01*
X409938Y316571D01*
X410026Y316518D01*
X410115Y316467D01*
X410206Y316421D01*
X410299Y316377D01*
X410394Y316338D01*
X410490Y316302D01*
X410587Y316269D01*
X410686Y316241D01*
X410785Y316216D01*
X410885Y316194D01*
X410986Y316177D01*
X411088Y316163D01*
X411190Y316154D01*
X411292Y316148D01*
X411395Y316146D01*
X411395Y316145D02*
X414105Y316145D01*
X436985Y290745D02*
X440372Y290745D01*
X436985Y290746D02*
X436869Y290744D01*
X436754Y290738D01*
X436639Y290728D01*
X436524Y290714D01*
X436410Y290697D01*
X436296Y290675D01*
X436183Y290650D01*
X436071Y290620D01*
X435960Y290587D01*
X435851Y290550D01*
X435742Y290510D01*
X435636Y290466D01*
X435530Y290418D01*
X435427Y290366D01*
X435325Y290311D01*
X435225Y290253D01*
X435127Y290191D01*
X435032Y290126D01*
X434938Y290058D01*
X434848Y289986D01*
X434759Y289912D01*
X434673Y289834D01*
X434590Y289754D01*
X434510Y289671D01*
X434432Y289585D01*
X434358Y289496D01*
X434286Y289406D01*
X434218Y289312D01*
X434153Y289217D01*
X434091Y289119D01*
X434033Y289019D01*
X433978Y288917D01*
X433926Y288814D01*
X433878Y288708D01*
X433834Y288602D01*
X433794Y288493D01*
X433757Y288384D01*
X433724Y288273D01*
X433694Y288161D01*
X433669Y288048D01*
X433647Y287934D01*
X433630Y287820D01*
X433616Y287705D01*
X433606Y287590D01*
X433600Y287475D01*
X433598Y287359D01*
X433600Y287243D01*
X433606Y287128D01*
X433616Y287013D01*
X433630Y286898D01*
X433647Y286784D01*
X433669Y286670D01*
X433694Y286557D01*
X433724Y286445D01*
X433757Y286334D01*
X433794Y286225D01*
X433834Y286116D01*
X433878Y286010D01*
X433926Y285904D01*
X433978Y285801D01*
X434033Y285699D01*
X434091Y285599D01*
X434153Y285501D01*
X434218Y285406D01*
X434286Y285312D01*
X434358Y285222D01*
X434432Y285133D01*
X434510Y285047D01*
X434590Y284964D01*
X434673Y284884D01*
X434759Y284806D01*
X434848Y284732D01*
X434938Y284660D01*
X435032Y284592D01*
X435127Y284527D01*
X435225Y284465D01*
X435325Y284407D01*
X435427Y284352D01*
X435530Y284300D01*
X435636Y284252D01*
X435742Y284208D01*
X435851Y284168D01*
X435960Y284131D01*
X436071Y284098D01*
X436183Y284068D01*
X436296Y284043D01*
X436410Y284021D01*
X436524Y284004D01*
X436639Y283990D01*
X436754Y283980D01*
X436869Y283974D01*
X436985Y283972D01*
X440372Y283972D01*
X440372Y296164D01*
X436985Y296164D01*
X436882Y296162D01*
X436780Y296156D01*
X436678Y296147D01*
X436576Y296133D01*
X436475Y296116D01*
X436375Y296094D01*
X436276Y296069D01*
X436177Y296041D01*
X436080Y296008D01*
X435984Y295972D01*
X435889Y295933D01*
X435796Y295889D01*
X435705Y295843D01*
X435616Y295792D01*
X435528Y295739D01*
X435443Y295682D01*
X435360Y295622D01*
X435279Y295559D01*
X435200Y295493D01*
X435125Y295424D01*
X435051Y295352D01*
X434981Y295278D01*
X434913Y295201D01*
X434849Y295121D01*
X434787Y295039D01*
X434729Y294955D01*
X434674Y294868D01*
X434622Y294780D01*
X434574Y294689D01*
X434529Y294597D01*
X434487Y294504D01*
X434449Y294408D01*
X434415Y294312D01*
X434384Y294214D01*
X434358Y294115D01*
X434334Y294015D01*
X434315Y293914D01*
X434300Y293813D01*
X434288Y293711D01*
X434280Y293609D01*
X434276Y293506D01*
X434276Y293404D01*
X434280Y293301D01*
X434288Y293199D01*
X434300Y293097D01*
X434315Y292996D01*
X434334Y292895D01*
X434358Y292795D01*
X434384Y292696D01*
X434415Y292598D01*
X434449Y292502D01*
X434487Y292406D01*
X434529Y292313D01*
X434574Y292221D01*
X434622Y292130D01*
X434674Y292042D01*
X434729Y291955D01*
X434787Y291871D01*
X434849Y291789D01*
X434913Y291709D01*
X434981Y291632D01*
X435051Y291558D01*
X435125Y291486D01*
X435200Y291417D01*
X435279Y291351D01*
X435360Y291288D01*
X435443Y291228D01*
X435528Y291171D01*
X435616Y291118D01*
X435705Y291067D01*
X435796Y291021D01*
X435889Y290977D01*
X435984Y290938D01*
X436080Y290902D01*
X436177Y290869D01*
X436276Y290841D01*
X436375Y290816D01*
X436475Y290794D01*
X436576Y290777D01*
X436678Y290763D01*
X436780Y290754D01*
X436882Y290748D01*
X436985Y290746D01*
X428261Y293455D02*
X424874Y296164D01*
X424874Y283972D01*
X421488Y283972D02*
X428261Y283972D01*
X411734Y296164D02*
X411625Y296162D01*
X411517Y296156D01*
X411408Y296147D01*
X411300Y296133D01*
X411193Y296116D01*
X411086Y296094D01*
X410980Y296069D01*
X410875Y296041D01*
X410771Y296008D01*
X410669Y295972D01*
X410568Y295932D01*
X410468Y295889D01*
X410370Y295842D01*
X410273Y295791D01*
X410179Y295737D01*
X410086Y295680D01*
X409996Y295620D01*
X409907Y295556D01*
X409821Y295489D01*
X409738Y295420D01*
X409657Y295347D01*
X409579Y295271D01*
X409503Y295193D01*
X409430Y295112D01*
X409361Y295029D01*
X409294Y294943D01*
X409230Y294854D01*
X409170Y294764D01*
X409113Y294671D01*
X409059Y294577D01*
X409008Y294480D01*
X408961Y294382D01*
X408918Y294282D01*
X408878Y294181D01*
X408842Y294079D01*
X408809Y293975D01*
X408781Y293870D01*
X408756Y293764D01*
X408734Y293657D01*
X408717Y293550D01*
X408703Y293442D01*
X408694Y293333D01*
X408688Y293225D01*
X408686Y293116D01*
X411734Y296164D02*
X411857Y296162D01*
X411980Y296156D01*
X412103Y296147D01*
X412225Y296133D01*
X412347Y296116D01*
X412468Y296095D01*
X412589Y296070D01*
X412709Y296041D01*
X412827Y296008D01*
X412945Y295972D01*
X413061Y295932D01*
X413177Y295889D01*
X413290Y295841D01*
X413403Y295791D01*
X413513Y295737D01*
X413622Y295679D01*
X413729Y295618D01*
X413834Y295553D01*
X413937Y295486D01*
X414037Y295415D01*
X414136Y295341D01*
X414232Y295264D01*
X414325Y295184D01*
X414416Y295101D01*
X414505Y295015D01*
X414590Y294927D01*
X414673Y294836D01*
X414753Y294742D01*
X414830Y294646D01*
X414904Y294547D01*
X414974Y294447D01*
X415042Y294344D01*
X415106Y294239D01*
X415167Y294132D01*
X415225Y294023D01*
X415279Y293912D01*
X415329Y293800D01*
X415376Y293686D01*
X415420Y293571D01*
X415459Y293455D01*
X409702Y290745D02*
X409623Y290823D01*
X409547Y290903D01*
X409474Y290985D01*
X409404Y291071D01*
X409336Y291158D01*
X409271Y291248D01*
X409210Y291339D01*
X409152Y291433D01*
X409096Y291529D01*
X409045Y291626D01*
X408996Y291726D01*
X408951Y291826D01*
X408909Y291929D01*
X408871Y292032D01*
X408836Y292137D01*
X408805Y292243D01*
X408777Y292350D01*
X408753Y292458D01*
X408732Y292566D01*
X408716Y292675D01*
X408703Y292785D01*
X408693Y292895D01*
X408688Y293006D01*
X408686Y293116D01*
X409702Y290745D02*
X415459Y283972D01*
X408686Y283972D01*
X436985Y265345D02*
X440372Y265345D01*
X436985Y265346D02*
X436869Y265344D01*
X436754Y265338D01*
X436639Y265328D01*
X436524Y265314D01*
X436410Y265297D01*
X436296Y265275D01*
X436183Y265250D01*
X436071Y265220D01*
X435960Y265187D01*
X435851Y265150D01*
X435742Y265110D01*
X435636Y265066D01*
X435530Y265018D01*
X435427Y264966D01*
X435325Y264911D01*
X435225Y264853D01*
X435127Y264791D01*
X435032Y264726D01*
X434938Y264658D01*
X434848Y264586D01*
X434759Y264512D01*
X434673Y264434D01*
X434590Y264354D01*
X434510Y264271D01*
X434432Y264185D01*
X434358Y264096D01*
X434286Y264006D01*
X434218Y263912D01*
X434153Y263817D01*
X434091Y263719D01*
X434033Y263619D01*
X433978Y263517D01*
X433926Y263414D01*
X433878Y263308D01*
X433834Y263202D01*
X433794Y263093D01*
X433757Y262984D01*
X433724Y262873D01*
X433694Y262761D01*
X433669Y262648D01*
X433647Y262534D01*
X433630Y262420D01*
X433616Y262305D01*
X433606Y262190D01*
X433600Y262075D01*
X433598Y261959D01*
X433600Y261843D01*
X433606Y261728D01*
X433616Y261613D01*
X433630Y261498D01*
X433647Y261384D01*
X433669Y261270D01*
X433694Y261157D01*
X433724Y261045D01*
X433757Y260934D01*
X433794Y260825D01*
X433834Y260716D01*
X433878Y260610D01*
X433926Y260504D01*
X433978Y260401D01*
X434033Y260299D01*
X434091Y260199D01*
X434153Y260101D01*
X434218Y260006D01*
X434286Y259912D01*
X434358Y259822D01*
X434432Y259733D01*
X434510Y259647D01*
X434590Y259564D01*
X434673Y259484D01*
X434759Y259406D01*
X434848Y259332D01*
X434938Y259260D01*
X435032Y259192D01*
X435127Y259127D01*
X435225Y259065D01*
X435325Y259007D01*
X435427Y258952D01*
X435530Y258900D01*
X435636Y258852D01*
X435742Y258808D01*
X435851Y258768D01*
X435960Y258731D01*
X436071Y258698D01*
X436183Y258668D01*
X436296Y258643D01*
X436410Y258621D01*
X436524Y258604D01*
X436639Y258590D01*
X436754Y258580D01*
X436869Y258574D01*
X436985Y258572D01*
X440372Y258572D01*
X440372Y270764D01*
X436985Y270764D01*
X436882Y270762D01*
X436780Y270756D01*
X436678Y270747D01*
X436576Y270733D01*
X436475Y270716D01*
X436375Y270694D01*
X436276Y270669D01*
X436177Y270641D01*
X436080Y270608D01*
X435984Y270572D01*
X435889Y270533D01*
X435796Y270489D01*
X435705Y270443D01*
X435616Y270392D01*
X435528Y270339D01*
X435443Y270282D01*
X435360Y270222D01*
X435279Y270159D01*
X435200Y270093D01*
X435125Y270024D01*
X435051Y269952D01*
X434981Y269878D01*
X434913Y269801D01*
X434849Y269721D01*
X434787Y269639D01*
X434729Y269555D01*
X434674Y269468D01*
X434622Y269380D01*
X434574Y269289D01*
X434529Y269197D01*
X434487Y269104D01*
X434449Y269008D01*
X434415Y268912D01*
X434384Y268814D01*
X434358Y268715D01*
X434334Y268615D01*
X434315Y268514D01*
X434300Y268413D01*
X434288Y268311D01*
X434280Y268209D01*
X434276Y268106D01*
X434276Y268004D01*
X434280Y267901D01*
X434288Y267799D01*
X434300Y267697D01*
X434315Y267596D01*
X434334Y267495D01*
X434358Y267395D01*
X434384Y267296D01*
X434415Y267198D01*
X434449Y267102D01*
X434487Y267006D01*
X434529Y266913D01*
X434574Y266821D01*
X434622Y266730D01*
X434674Y266642D01*
X434729Y266555D01*
X434787Y266471D01*
X434849Y266389D01*
X434913Y266309D01*
X434981Y266232D01*
X435051Y266158D01*
X435125Y266086D01*
X435200Y266017D01*
X435279Y265951D01*
X435360Y265888D01*
X435443Y265828D01*
X435528Y265771D01*
X435616Y265718D01*
X435705Y265667D01*
X435796Y265621D01*
X435889Y265577D01*
X435984Y265538D01*
X436080Y265502D01*
X436177Y265469D01*
X436276Y265441D01*
X436375Y265416D01*
X436475Y265394D01*
X436576Y265377D01*
X436678Y265363D01*
X436780Y265354D01*
X436882Y265348D01*
X436985Y265346D01*
X428261Y268055D02*
X424874Y270764D01*
X424874Y258572D01*
X421488Y258572D02*
X428261Y258572D01*
X415459Y268055D02*
X412073Y270764D01*
X412073Y258572D01*
X415459Y258572D02*
X408686Y258572D01*
X436985Y239945D02*
X440372Y239945D01*
X436985Y239946D02*
X436869Y239944D01*
X436754Y239938D01*
X436639Y239928D01*
X436524Y239914D01*
X436410Y239897D01*
X436296Y239875D01*
X436183Y239850D01*
X436071Y239820D01*
X435960Y239787D01*
X435851Y239750D01*
X435742Y239710D01*
X435636Y239666D01*
X435530Y239618D01*
X435427Y239566D01*
X435325Y239511D01*
X435225Y239453D01*
X435127Y239391D01*
X435032Y239326D01*
X434938Y239258D01*
X434848Y239186D01*
X434759Y239112D01*
X434673Y239034D01*
X434590Y238954D01*
X434510Y238871D01*
X434432Y238785D01*
X434358Y238696D01*
X434286Y238606D01*
X434218Y238512D01*
X434153Y238417D01*
X434091Y238319D01*
X434033Y238219D01*
X433978Y238117D01*
X433926Y238014D01*
X433878Y237908D01*
X433834Y237802D01*
X433794Y237693D01*
X433757Y237584D01*
X433724Y237473D01*
X433694Y237361D01*
X433669Y237248D01*
X433647Y237134D01*
X433630Y237020D01*
X433616Y236905D01*
X433606Y236790D01*
X433600Y236675D01*
X433598Y236559D01*
X433600Y236443D01*
X433606Y236328D01*
X433616Y236213D01*
X433630Y236098D01*
X433647Y235984D01*
X433669Y235870D01*
X433694Y235757D01*
X433724Y235645D01*
X433757Y235534D01*
X433794Y235425D01*
X433834Y235316D01*
X433878Y235210D01*
X433926Y235104D01*
X433978Y235001D01*
X434033Y234899D01*
X434091Y234799D01*
X434153Y234701D01*
X434218Y234606D01*
X434286Y234512D01*
X434358Y234422D01*
X434432Y234333D01*
X434510Y234247D01*
X434590Y234164D01*
X434673Y234084D01*
X434759Y234006D01*
X434848Y233932D01*
X434938Y233860D01*
X435032Y233792D01*
X435127Y233727D01*
X435225Y233665D01*
X435325Y233607D01*
X435427Y233552D01*
X435530Y233500D01*
X435636Y233452D01*
X435742Y233408D01*
X435851Y233368D01*
X435960Y233331D01*
X436071Y233298D01*
X436183Y233268D01*
X436296Y233243D01*
X436410Y233221D01*
X436524Y233204D01*
X436639Y233190D01*
X436754Y233180D01*
X436869Y233174D01*
X436985Y233172D01*
X440372Y233172D01*
X440372Y245364D01*
X436985Y245364D01*
X436882Y245362D01*
X436780Y245356D01*
X436678Y245347D01*
X436576Y245333D01*
X436475Y245316D01*
X436375Y245294D01*
X436276Y245269D01*
X436177Y245241D01*
X436080Y245208D01*
X435984Y245172D01*
X435889Y245133D01*
X435796Y245089D01*
X435705Y245043D01*
X435616Y244992D01*
X435528Y244939D01*
X435443Y244882D01*
X435360Y244822D01*
X435279Y244759D01*
X435200Y244693D01*
X435125Y244624D01*
X435051Y244552D01*
X434981Y244478D01*
X434913Y244401D01*
X434849Y244321D01*
X434787Y244239D01*
X434729Y244155D01*
X434674Y244068D01*
X434622Y243980D01*
X434574Y243889D01*
X434529Y243797D01*
X434487Y243704D01*
X434449Y243608D01*
X434415Y243512D01*
X434384Y243414D01*
X434358Y243315D01*
X434334Y243215D01*
X434315Y243114D01*
X434300Y243013D01*
X434288Y242911D01*
X434280Y242809D01*
X434276Y242706D01*
X434276Y242604D01*
X434280Y242501D01*
X434288Y242399D01*
X434300Y242297D01*
X434315Y242196D01*
X434334Y242095D01*
X434358Y241995D01*
X434384Y241896D01*
X434415Y241798D01*
X434449Y241702D01*
X434487Y241606D01*
X434529Y241513D01*
X434574Y241421D01*
X434622Y241330D01*
X434674Y241242D01*
X434729Y241155D01*
X434787Y241071D01*
X434849Y240989D01*
X434913Y240909D01*
X434981Y240832D01*
X435051Y240758D01*
X435125Y240686D01*
X435200Y240617D01*
X435279Y240551D01*
X435360Y240488D01*
X435443Y240428D01*
X435528Y240371D01*
X435616Y240318D01*
X435705Y240267D01*
X435796Y240221D01*
X435889Y240177D01*
X435984Y240138D01*
X436080Y240102D01*
X436177Y240069D01*
X436276Y240041D01*
X436375Y240016D01*
X436475Y239994D01*
X436576Y239977D01*
X436678Y239963D01*
X436780Y239954D01*
X436882Y239948D01*
X436985Y239946D01*
X428261Y242655D02*
X424874Y245364D01*
X424874Y233172D01*
X421488Y233172D02*
X428261Y233172D01*
X415459Y239268D02*
X415456Y239508D01*
X415448Y239748D01*
X415433Y239987D01*
X415413Y240226D01*
X415388Y240464D01*
X415356Y240702D01*
X415319Y240939D01*
X415276Y241175D01*
X415228Y241410D01*
X415174Y241644D01*
X415115Y241876D01*
X415050Y242107D01*
X414979Y242336D01*
X414903Y242564D01*
X414822Y242789D01*
X414735Y243013D01*
X414643Y243235D01*
X414546Y243454D01*
X414443Y243671D01*
X414444Y243671D02*
X414410Y243762D01*
X414373Y243852D01*
X414333Y243940D01*
X414290Y244027D01*
X414243Y244112D01*
X414192Y244195D01*
X414139Y244276D01*
X414082Y244355D01*
X414023Y244432D01*
X413960Y244507D01*
X413895Y244578D01*
X413827Y244648D01*
X413756Y244714D01*
X413683Y244778D01*
X413608Y244839D01*
X413530Y244897D01*
X413449Y244952D01*
X413367Y245004D01*
X413283Y245052D01*
X413197Y245098D01*
X413110Y245140D01*
X413020Y245178D01*
X412930Y245213D01*
X412838Y245244D01*
X412745Y245272D01*
X412651Y245297D01*
X412556Y245317D01*
X412460Y245334D01*
X412364Y245347D01*
X412267Y245356D01*
X412170Y245362D01*
X412073Y245364D01*
X411976Y245362D01*
X411879Y245356D01*
X411782Y245347D01*
X411686Y245334D01*
X411590Y245317D01*
X411495Y245297D01*
X411401Y245272D01*
X411308Y245244D01*
X411216Y245213D01*
X411126Y245178D01*
X411036Y245140D01*
X410949Y245098D01*
X410863Y245052D01*
X410779Y245004D01*
X410697Y244952D01*
X410616Y244897D01*
X410538Y244839D01*
X410463Y244778D01*
X410390Y244714D01*
X410319Y244648D01*
X410251Y244578D01*
X410186Y244507D01*
X410123Y244432D01*
X410064Y244355D01*
X410007Y244276D01*
X409954Y244195D01*
X409903Y244112D01*
X409856Y244027D01*
X409813Y243940D01*
X409773Y243852D01*
X409736Y243762D01*
X409702Y243671D01*
X409599Y243454D01*
X409502Y243235D01*
X409410Y243013D01*
X409323Y242789D01*
X409242Y242564D01*
X409166Y242336D01*
X409095Y242107D01*
X409030Y241876D01*
X408971Y241644D01*
X408917Y241410D01*
X408869Y241175D01*
X408826Y240939D01*
X408789Y240702D01*
X408757Y240464D01*
X408732Y240226D01*
X408712Y239987D01*
X408697Y239748D01*
X408689Y239508D01*
X408686Y239268D01*
X415459Y239268D02*
X415456Y239028D01*
X415448Y238788D01*
X415433Y238549D01*
X415413Y238310D01*
X415388Y238072D01*
X415356Y237834D01*
X415319Y237597D01*
X415276Y237361D01*
X415228Y237126D01*
X415174Y236892D01*
X415115Y236660D01*
X415050Y236429D01*
X414979Y236200D01*
X414903Y235972D01*
X414822Y235747D01*
X414735Y235523D01*
X414643Y235301D01*
X414546Y235082D01*
X414443Y234865D01*
X414444Y234865D02*
X414410Y234774D01*
X414373Y234684D01*
X414333Y234596D01*
X414290Y234509D01*
X414243Y234424D01*
X414192Y234341D01*
X414139Y234260D01*
X414082Y234181D01*
X414023Y234104D01*
X413960Y234029D01*
X413895Y233958D01*
X413827Y233888D01*
X413756Y233822D01*
X413683Y233758D01*
X413608Y233697D01*
X413530Y233639D01*
X413449Y233584D01*
X413367Y233532D01*
X413283Y233484D01*
X413197Y233438D01*
X413110Y233396D01*
X413020Y233358D01*
X412930Y233323D01*
X412838Y233292D01*
X412745Y233264D01*
X412651Y233239D01*
X412556Y233219D01*
X412460Y233202D01*
X412364Y233189D01*
X412267Y233180D01*
X412170Y233174D01*
X412073Y233172D01*
X409702Y234865D02*
X409599Y235082D01*
X409502Y235301D01*
X409410Y235523D01*
X409323Y235747D01*
X409242Y235972D01*
X409166Y236200D01*
X409095Y236429D01*
X409030Y236660D01*
X408971Y236892D01*
X408917Y237126D01*
X408869Y237361D01*
X408826Y237597D01*
X408789Y237834D01*
X408757Y238072D01*
X408732Y238310D01*
X408712Y238549D01*
X408697Y238788D01*
X408689Y239028D01*
X408686Y239268D01*
X409702Y234865D02*
X409736Y234774D01*
X409773Y234684D01*
X409813Y234596D01*
X409856Y234509D01*
X409903Y234424D01*
X409954Y234341D01*
X410007Y234260D01*
X410064Y234181D01*
X410123Y234104D01*
X410186Y234029D01*
X410251Y233958D01*
X410319Y233888D01*
X410390Y233822D01*
X410463Y233758D01*
X410538Y233697D01*
X410616Y233639D01*
X410697Y233584D01*
X410779Y233532D01*
X410863Y233484D01*
X410949Y233438D01*
X411036Y233396D01*
X411126Y233358D01*
X411216Y233323D01*
X411308Y233292D01*
X411401Y233264D01*
X411495Y233239D01*
X411590Y233219D01*
X411686Y233202D01*
X411782Y233189D01*
X411879Y233180D01*
X411976Y233174D01*
X412073Y233172D01*
X414782Y235881D02*
X409363Y242655D01*
X424183Y214545D02*
X427570Y214545D01*
X424183Y214546D02*
X424067Y214544D01*
X423952Y214538D01*
X423837Y214528D01*
X423722Y214514D01*
X423608Y214497D01*
X423494Y214475D01*
X423381Y214450D01*
X423269Y214420D01*
X423158Y214387D01*
X423049Y214350D01*
X422940Y214310D01*
X422834Y214266D01*
X422728Y214218D01*
X422625Y214166D01*
X422523Y214111D01*
X422423Y214053D01*
X422325Y213991D01*
X422230Y213926D01*
X422136Y213858D01*
X422046Y213786D01*
X421957Y213712D01*
X421871Y213634D01*
X421788Y213554D01*
X421708Y213471D01*
X421630Y213385D01*
X421556Y213296D01*
X421484Y213206D01*
X421416Y213112D01*
X421351Y213017D01*
X421289Y212919D01*
X421231Y212819D01*
X421176Y212717D01*
X421124Y212614D01*
X421076Y212508D01*
X421032Y212402D01*
X420992Y212293D01*
X420955Y212184D01*
X420922Y212073D01*
X420892Y211961D01*
X420867Y211848D01*
X420845Y211734D01*
X420828Y211620D01*
X420814Y211505D01*
X420804Y211390D01*
X420798Y211275D01*
X420796Y211159D01*
X420798Y211043D01*
X420804Y210928D01*
X420814Y210813D01*
X420828Y210698D01*
X420845Y210584D01*
X420867Y210470D01*
X420892Y210357D01*
X420922Y210245D01*
X420955Y210134D01*
X420992Y210025D01*
X421032Y209916D01*
X421076Y209810D01*
X421124Y209704D01*
X421176Y209601D01*
X421231Y209499D01*
X421289Y209399D01*
X421351Y209301D01*
X421416Y209206D01*
X421484Y209112D01*
X421556Y209022D01*
X421630Y208933D01*
X421708Y208847D01*
X421788Y208764D01*
X421871Y208684D01*
X421957Y208606D01*
X422046Y208532D01*
X422136Y208460D01*
X422230Y208392D01*
X422325Y208327D01*
X422423Y208265D01*
X422523Y208207D01*
X422625Y208152D01*
X422728Y208100D01*
X422834Y208052D01*
X422940Y208008D01*
X423049Y207968D01*
X423158Y207931D01*
X423269Y207898D01*
X423381Y207868D01*
X423494Y207843D01*
X423608Y207821D01*
X423722Y207804D01*
X423837Y207790D01*
X423952Y207780D01*
X424067Y207774D01*
X424183Y207772D01*
X427570Y207772D01*
X427570Y219964D01*
X424183Y219964D01*
X424080Y219962D01*
X423978Y219956D01*
X423876Y219947D01*
X423774Y219933D01*
X423673Y219916D01*
X423573Y219894D01*
X423474Y219869D01*
X423375Y219841D01*
X423278Y219808D01*
X423182Y219772D01*
X423087Y219733D01*
X422994Y219689D01*
X422903Y219643D01*
X422814Y219592D01*
X422726Y219539D01*
X422641Y219482D01*
X422558Y219422D01*
X422477Y219359D01*
X422398Y219293D01*
X422323Y219224D01*
X422249Y219152D01*
X422179Y219078D01*
X422111Y219001D01*
X422047Y218921D01*
X421985Y218839D01*
X421927Y218755D01*
X421872Y218668D01*
X421820Y218580D01*
X421772Y218489D01*
X421727Y218397D01*
X421685Y218304D01*
X421647Y218208D01*
X421613Y218112D01*
X421582Y218014D01*
X421556Y217915D01*
X421532Y217815D01*
X421513Y217714D01*
X421498Y217613D01*
X421486Y217511D01*
X421478Y217409D01*
X421474Y217306D01*
X421474Y217204D01*
X421478Y217101D01*
X421486Y216999D01*
X421498Y216897D01*
X421513Y216796D01*
X421532Y216695D01*
X421556Y216595D01*
X421582Y216496D01*
X421613Y216398D01*
X421647Y216302D01*
X421685Y216206D01*
X421727Y216113D01*
X421772Y216021D01*
X421820Y215930D01*
X421872Y215842D01*
X421927Y215755D01*
X421985Y215671D01*
X422047Y215589D01*
X422111Y215509D01*
X422179Y215432D01*
X422249Y215358D01*
X422323Y215286D01*
X422398Y215217D01*
X422477Y215151D01*
X422558Y215088D01*
X422641Y215028D01*
X422726Y214971D01*
X422814Y214918D01*
X422903Y214867D01*
X422994Y214821D01*
X423087Y214777D01*
X423182Y214738D01*
X423278Y214702D01*
X423375Y214669D01*
X423474Y214641D01*
X423573Y214616D01*
X423673Y214594D01*
X423774Y214577D01*
X423876Y214563D01*
X423978Y214554D01*
X424080Y214548D01*
X424183Y214546D01*
X415459Y218609D02*
X415459Y219964D01*
X408686Y219964D01*
X412073Y207772D01*
X437046Y194564D02*
X432982Y182372D01*
X428918Y194564D01*
X422741Y194564D02*
X422741Y182372D01*
X424095Y182372D02*
X421386Y182372D01*
X421386Y194564D02*
X424095Y194564D01*
X415459Y194564D02*
X415459Y182372D01*
X408686Y182372D02*
X415459Y194564D01*
X408686Y194564D02*
X408686Y182372D01*
X437676Y156972D02*
X441062Y156972D01*
X437676Y156972D02*
X437560Y156974D01*
X437445Y156980D01*
X437330Y156990D01*
X437215Y157004D01*
X437101Y157021D01*
X436987Y157043D01*
X436874Y157068D01*
X436762Y157098D01*
X436651Y157131D01*
X436542Y157168D01*
X436433Y157208D01*
X436327Y157252D01*
X436221Y157300D01*
X436118Y157352D01*
X436016Y157407D01*
X435916Y157465D01*
X435818Y157527D01*
X435723Y157592D01*
X435629Y157660D01*
X435539Y157732D01*
X435450Y157806D01*
X435364Y157884D01*
X435281Y157964D01*
X435201Y158047D01*
X435123Y158133D01*
X435049Y158222D01*
X434977Y158312D01*
X434909Y158406D01*
X434844Y158501D01*
X434782Y158599D01*
X434724Y158699D01*
X434669Y158801D01*
X434617Y158904D01*
X434569Y159010D01*
X434525Y159116D01*
X434485Y159225D01*
X434448Y159334D01*
X434415Y159445D01*
X434385Y159557D01*
X434360Y159670D01*
X434338Y159784D01*
X434321Y159898D01*
X434307Y160013D01*
X434297Y160128D01*
X434291Y160243D01*
X434289Y160359D01*
X434291Y160475D01*
X434297Y160590D01*
X434307Y160705D01*
X434321Y160820D01*
X434338Y160934D01*
X434360Y161048D01*
X434385Y161161D01*
X434415Y161273D01*
X434448Y161384D01*
X434485Y161493D01*
X434525Y161602D01*
X434569Y161708D01*
X434617Y161814D01*
X434669Y161917D01*
X434724Y162019D01*
X434782Y162119D01*
X434844Y162217D01*
X434909Y162312D01*
X434977Y162406D01*
X435049Y162496D01*
X435123Y162585D01*
X435201Y162671D01*
X435281Y162754D01*
X435364Y162834D01*
X435450Y162912D01*
X435539Y162986D01*
X435629Y163058D01*
X435723Y163126D01*
X435818Y163191D01*
X435916Y163253D01*
X436016Y163311D01*
X436118Y163366D01*
X436221Y163418D01*
X436327Y163466D01*
X436433Y163510D01*
X436542Y163550D01*
X436651Y163587D01*
X436762Y163620D01*
X436874Y163650D01*
X436987Y163675D01*
X437101Y163697D01*
X437215Y163714D01*
X437330Y163728D01*
X437445Y163738D01*
X437560Y163744D01*
X437676Y163746D01*
X436998Y169164D02*
X441062Y169164D01*
X436998Y169164D02*
X436895Y169162D01*
X436793Y169156D01*
X436691Y169147D01*
X436589Y169133D01*
X436488Y169116D01*
X436388Y169094D01*
X436289Y169069D01*
X436190Y169041D01*
X436093Y169008D01*
X435997Y168972D01*
X435902Y168933D01*
X435809Y168889D01*
X435718Y168843D01*
X435629Y168792D01*
X435541Y168739D01*
X435456Y168682D01*
X435373Y168622D01*
X435292Y168559D01*
X435213Y168493D01*
X435138Y168424D01*
X435064Y168352D01*
X434994Y168278D01*
X434926Y168201D01*
X434862Y168121D01*
X434800Y168039D01*
X434742Y167955D01*
X434687Y167868D01*
X434635Y167780D01*
X434587Y167689D01*
X434542Y167597D01*
X434500Y167504D01*
X434462Y167408D01*
X434428Y167312D01*
X434397Y167214D01*
X434371Y167115D01*
X434347Y167015D01*
X434328Y166914D01*
X434313Y166813D01*
X434301Y166711D01*
X434293Y166609D01*
X434289Y166506D01*
X434289Y166404D01*
X434293Y166301D01*
X434301Y166199D01*
X434313Y166097D01*
X434328Y165996D01*
X434347Y165895D01*
X434371Y165795D01*
X434397Y165696D01*
X434428Y165598D01*
X434462Y165502D01*
X434500Y165406D01*
X434542Y165313D01*
X434587Y165221D01*
X434635Y165130D01*
X434687Y165042D01*
X434742Y164955D01*
X434800Y164871D01*
X434862Y164789D01*
X434926Y164709D01*
X434994Y164632D01*
X435064Y164558D01*
X435138Y164486D01*
X435213Y164417D01*
X435292Y164351D01*
X435373Y164288D01*
X435456Y164228D01*
X435541Y164171D01*
X435629Y164118D01*
X435718Y164067D01*
X435809Y164021D01*
X435902Y163977D01*
X435997Y163938D01*
X436093Y163902D01*
X436190Y163869D01*
X436289Y163841D01*
X436388Y163816D01*
X436488Y163794D01*
X436589Y163777D01*
X436691Y163763D01*
X436793Y163754D01*
X436895Y163748D01*
X436998Y163746D01*
X436998Y163745D02*
X439708Y163745D01*
X428938Y169164D02*
X424874Y156972D01*
X420810Y169164D01*
X415459Y156972D02*
X412073Y156972D01*
X411957Y156974D01*
X411842Y156980D01*
X411727Y156990D01*
X411612Y157004D01*
X411498Y157021D01*
X411384Y157043D01*
X411271Y157068D01*
X411159Y157098D01*
X411048Y157131D01*
X410939Y157168D01*
X410830Y157208D01*
X410724Y157252D01*
X410618Y157300D01*
X410515Y157352D01*
X410413Y157407D01*
X410313Y157465D01*
X410215Y157527D01*
X410120Y157592D01*
X410026Y157660D01*
X409936Y157732D01*
X409847Y157806D01*
X409761Y157884D01*
X409678Y157964D01*
X409598Y158047D01*
X409520Y158133D01*
X409446Y158222D01*
X409374Y158312D01*
X409306Y158406D01*
X409241Y158501D01*
X409179Y158599D01*
X409121Y158699D01*
X409066Y158801D01*
X409014Y158904D01*
X408966Y159010D01*
X408922Y159116D01*
X408882Y159225D01*
X408845Y159334D01*
X408812Y159445D01*
X408782Y159557D01*
X408757Y159670D01*
X408735Y159784D01*
X408718Y159898D01*
X408704Y160013D01*
X408694Y160128D01*
X408688Y160243D01*
X408686Y160359D01*
X408688Y160475D01*
X408694Y160590D01*
X408704Y160705D01*
X408718Y160820D01*
X408735Y160934D01*
X408757Y161048D01*
X408782Y161161D01*
X408812Y161273D01*
X408845Y161384D01*
X408882Y161493D01*
X408922Y161602D01*
X408966Y161708D01*
X409014Y161814D01*
X409066Y161917D01*
X409121Y162019D01*
X409179Y162119D01*
X409241Y162217D01*
X409306Y162312D01*
X409374Y162406D01*
X409446Y162496D01*
X409520Y162585D01*
X409598Y162671D01*
X409678Y162754D01*
X409761Y162834D01*
X409847Y162912D01*
X409936Y162986D01*
X410026Y163058D01*
X410120Y163126D01*
X410215Y163191D01*
X410313Y163253D01*
X410413Y163311D01*
X410515Y163366D01*
X410618Y163418D01*
X410724Y163466D01*
X410830Y163510D01*
X410939Y163550D01*
X411048Y163587D01*
X411159Y163620D01*
X411271Y163650D01*
X411384Y163675D01*
X411498Y163697D01*
X411612Y163714D01*
X411727Y163728D01*
X411842Y163738D01*
X411957Y163744D01*
X412073Y163746D01*
X411395Y169164D02*
X415459Y169164D01*
X411395Y169164D02*
X411292Y169162D01*
X411190Y169156D01*
X411088Y169147D01*
X410986Y169133D01*
X410885Y169116D01*
X410785Y169094D01*
X410686Y169069D01*
X410587Y169041D01*
X410490Y169008D01*
X410394Y168972D01*
X410299Y168933D01*
X410206Y168889D01*
X410115Y168843D01*
X410026Y168792D01*
X409938Y168739D01*
X409853Y168682D01*
X409770Y168622D01*
X409689Y168559D01*
X409610Y168493D01*
X409535Y168424D01*
X409461Y168352D01*
X409391Y168278D01*
X409323Y168201D01*
X409259Y168121D01*
X409197Y168039D01*
X409139Y167955D01*
X409084Y167868D01*
X409032Y167780D01*
X408984Y167689D01*
X408939Y167597D01*
X408897Y167504D01*
X408859Y167408D01*
X408825Y167312D01*
X408794Y167214D01*
X408768Y167115D01*
X408744Y167015D01*
X408725Y166914D01*
X408710Y166813D01*
X408698Y166711D01*
X408690Y166609D01*
X408686Y166506D01*
X408686Y166404D01*
X408690Y166301D01*
X408698Y166199D01*
X408710Y166097D01*
X408725Y165996D01*
X408744Y165895D01*
X408768Y165795D01*
X408794Y165696D01*
X408825Y165598D01*
X408859Y165502D01*
X408897Y165406D01*
X408939Y165313D01*
X408984Y165221D01*
X409032Y165130D01*
X409084Y165042D01*
X409139Y164955D01*
X409197Y164871D01*
X409259Y164789D01*
X409323Y164709D01*
X409391Y164632D01*
X409461Y164558D01*
X409535Y164486D01*
X409610Y164417D01*
X409689Y164351D01*
X409770Y164288D01*
X409853Y164228D01*
X409938Y164171D01*
X410026Y164118D01*
X410115Y164067D01*
X410206Y164021D01*
X410299Y163977D01*
X410394Y163938D01*
X410490Y163902D01*
X410587Y163869D01*
X410686Y163841D01*
X410785Y163816D01*
X410885Y163794D01*
X410986Y163777D01*
X411088Y163763D01*
X411190Y163754D01*
X411292Y163748D01*
X411395Y163746D01*
X411395Y163745D02*
X414105Y163745D01*
X435996Y138345D02*
X438028Y138345D01*
X435996Y138345D02*
X435996Y131572D01*
X440060Y131572D01*
X440161Y131574D01*
X440262Y131580D01*
X440363Y131589D01*
X440464Y131602D01*
X440564Y131619D01*
X440663Y131640D01*
X440761Y131664D01*
X440858Y131692D01*
X440955Y131724D01*
X441050Y131759D01*
X441143Y131798D01*
X441235Y131840D01*
X441326Y131886D01*
X441415Y131935D01*
X441501Y131987D01*
X441586Y132043D01*
X441669Y132101D01*
X441749Y132163D01*
X441827Y132228D01*
X441903Y132295D01*
X441976Y132365D01*
X442046Y132438D01*
X442113Y132514D01*
X442178Y132592D01*
X442240Y132672D01*
X442298Y132755D01*
X442354Y132840D01*
X442406Y132926D01*
X442455Y133015D01*
X442501Y133106D01*
X442543Y133198D01*
X442582Y133291D01*
X442617Y133386D01*
X442649Y133483D01*
X442677Y133580D01*
X442701Y133678D01*
X442722Y133777D01*
X442739Y133877D01*
X442752Y133978D01*
X442761Y134079D01*
X442767Y134180D01*
X442769Y134281D01*
X442769Y141055D01*
X442767Y141156D01*
X442761Y141257D01*
X442752Y141358D01*
X442739Y141459D01*
X442722Y141559D01*
X442701Y141658D01*
X442677Y141756D01*
X442649Y141853D01*
X442617Y141950D01*
X442582Y142045D01*
X442543Y142138D01*
X442501Y142230D01*
X442455Y142321D01*
X442406Y142410D01*
X442354Y142496D01*
X442298Y142581D01*
X442240Y142664D01*
X442178Y142744D01*
X442113Y142822D01*
X442046Y142898D01*
X441976Y142971D01*
X441903Y143041D01*
X441827Y143108D01*
X441749Y143173D01*
X441669Y143235D01*
X441586Y143293D01*
X441501Y143349D01*
X441415Y143401D01*
X441326Y143450D01*
X441235Y143496D01*
X441143Y143538D01*
X441050Y143577D01*
X440955Y143612D01*
X440858Y143644D01*
X440761Y143672D01*
X440663Y143696D01*
X440564Y143717D01*
X440464Y143734D01*
X440363Y143747D01*
X440262Y143756D01*
X440161Y143762D01*
X440060Y143764D01*
X435996Y143764D01*
X429114Y143764D02*
X429114Y131572D01*
X422341Y131572D02*
X429114Y143764D01*
X422341Y143764D02*
X422341Y131572D01*
X415459Y131572D02*
X415459Y143764D01*
X412073Y143764D01*
X411957Y143762D01*
X411842Y143756D01*
X411727Y143746D01*
X411612Y143732D01*
X411498Y143715D01*
X411384Y143693D01*
X411271Y143668D01*
X411159Y143638D01*
X411048Y143605D01*
X410939Y143568D01*
X410830Y143528D01*
X410724Y143484D01*
X410618Y143436D01*
X410515Y143384D01*
X410413Y143329D01*
X410313Y143271D01*
X410215Y143209D01*
X410120Y143144D01*
X410026Y143076D01*
X409936Y143004D01*
X409847Y142930D01*
X409761Y142852D01*
X409678Y142772D01*
X409598Y142689D01*
X409520Y142603D01*
X409446Y142514D01*
X409374Y142424D01*
X409306Y142330D01*
X409241Y142235D01*
X409179Y142137D01*
X409121Y142037D01*
X409066Y141935D01*
X409014Y141832D01*
X408966Y141726D01*
X408922Y141620D01*
X408882Y141511D01*
X408845Y141402D01*
X408812Y141291D01*
X408782Y141179D01*
X408757Y141066D01*
X408735Y140952D01*
X408718Y140838D01*
X408704Y140723D01*
X408694Y140608D01*
X408688Y140493D01*
X408686Y140377D01*
X408686Y134959D01*
X408688Y134843D01*
X408694Y134728D01*
X408704Y134613D01*
X408718Y134498D01*
X408735Y134384D01*
X408757Y134270D01*
X408782Y134157D01*
X408812Y134045D01*
X408845Y133934D01*
X408882Y133825D01*
X408922Y133716D01*
X408966Y133610D01*
X409014Y133504D01*
X409066Y133401D01*
X409121Y133299D01*
X409179Y133199D01*
X409241Y133101D01*
X409306Y133006D01*
X409374Y132912D01*
X409446Y132822D01*
X409520Y132733D01*
X409598Y132647D01*
X409678Y132564D01*
X409761Y132484D01*
X409847Y132406D01*
X409936Y132332D01*
X410026Y132260D01*
X410120Y132192D01*
X410215Y132127D01*
X410313Y132065D01*
X410413Y132007D01*
X410515Y131952D01*
X410618Y131900D01*
X410724Y131852D01*
X410830Y131808D01*
X410939Y131768D01*
X411048Y131731D01*
X411159Y131698D01*
X411271Y131668D01*
X411384Y131643D01*
X411498Y131621D01*
X411612Y131604D01*
X411727Y131590D01*
X411842Y131580D01*
X411957Y131574D01*
X412073Y131572D01*
X415459Y131572D01*
X293370Y445601D02*
X297434Y451358D01*
X293370Y445601D02*
X289306Y451358D01*
X293370Y445601D02*
X293370Y439166D01*
X283704Y441198D02*
X283704Y447294D01*
X283704Y441198D02*
X283702Y441109D01*
X283696Y441021D01*
X283687Y440933D01*
X283673Y440845D01*
X283656Y440758D01*
X283635Y440672D01*
X283610Y440587D01*
X283581Y440503D01*
X283549Y440420D01*
X283514Y440339D01*
X283474Y440260D01*
X283432Y440182D01*
X283386Y440106D01*
X283337Y440032D01*
X283284Y439961D01*
X283229Y439892D01*
X283170Y439825D01*
X283109Y439761D01*
X283045Y439700D01*
X282978Y439641D01*
X282909Y439586D01*
X282838Y439533D01*
X282764Y439484D01*
X282688Y439438D01*
X282610Y439396D01*
X282531Y439356D01*
X282450Y439321D01*
X282367Y439289D01*
X282283Y439260D01*
X282198Y439235D01*
X282112Y439214D01*
X282025Y439197D01*
X281937Y439183D01*
X281849Y439174D01*
X281761Y439168D01*
X281672Y439166D01*
X278286Y439166D01*
X278286Y447294D01*
X272769Y447294D02*
X272769Y437134D01*
X272771Y437045D01*
X272777Y436957D01*
X272786Y436869D01*
X272800Y436781D01*
X272817Y436694D01*
X272838Y436608D01*
X272863Y436523D01*
X272892Y436439D01*
X272924Y436356D01*
X272959Y436275D01*
X272999Y436196D01*
X273041Y436118D01*
X273087Y436042D01*
X273136Y435968D01*
X273189Y435897D01*
X273244Y435828D01*
X273303Y435761D01*
X273364Y435697D01*
X273428Y435636D01*
X273495Y435577D01*
X273564Y435522D01*
X273635Y435469D01*
X273709Y435420D01*
X273785Y435374D01*
X273863Y435332D01*
X273942Y435292D01*
X274023Y435257D01*
X274106Y435225D01*
X274190Y435196D01*
X274275Y435171D01*
X274361Y435150D01*
X274448Y435133D01*
X274536Y435119D01*
X274624Y435110D01*
X274712Y435104D01*
X274801Y435102D01*
X275478Y435102D01*
X273108Y450681D02*
X273108Y451358D01*
X272430Y451358D01*
X272430Y450681D01*
X273108Y450681D01*
X266636Y447294D02*
X266636Y441198D01*
X266634Y441109D01*
X266628Y441021D01*
X266619Y440933D01*
X266605Y440845D01*
X266588Y440758D01*
X266567Y440672D01*
X266542Y440587D01*
X266513Y440503D01*
X266481Y440420D01*
X266446Y440339D01*
X266406Y440260D01*
X266364Y440182D01*
X266318Y440106D01*
X266269Y440032D01*
X266216Y439961D01*
X266161Y439892D01*
X266102Y439825D01*
X266041Y439761D01*
X265977Y439700D01*
X265910Y439641D01*
X265841Y439586D01*
X265770Y439533D01*
X265696Y439484D01*
X265620Y439438D01*
X265542Y439396D01*
X265463Y439356D01*
X265382Y439321D01*
X265299Y439289D01*
X265215Y439260D01*
X265130Y439235D01*
X265044Y439214D01*
X264957Y439197D01*
X264869Y439183D01*
X264781Y439174D01*
X264693Y439168D01*
X264604Y439166D01*
X261217Y439166D01*
X261217Y447294D01*
X255392Y447294D02*
X255392Y439166D01*
X255731Y450681D02*
X255731Y451358D01*
X255053Y451358D01*
X255053Y450681D01*
X255731Y450681D01*
X240332Y439166D02*
X237623Y439166D01*
X240332Y439166D02*
X240433Y439168D01*
X240534Y439174D01*
X240635Y439183D01*
X240736Y439196D01*
X240836Y439213D01*
X240935Y439234D01*
X241033Y439258D01*
X241130Y439286D01*
X241227Y439318D01*
X241322Y439353D01*
X241415Y439392D01*
X241507Y439434D01*
X241598Y439480D01*
X241687Y439529D01*
X241773Y439581D01*
X241858Y439637D01*
X241941Y439695D01*
X242021Y439757D01*
X242099Y439822D01*
X242175Y439889D01*
X242248Y439959D01*
X242318Y440032D01*
X242385Y440108D01*
X242450Y440186D01*
X242512Y440266D01*
X242570Y440349D01*
X242626Y440434D01*
X242678Y440521D01*
X242727Y440609D01*
X242773Y440700D01*
X242815Y440792D01*
X242854Y440885D01*
X242889Y440980D01*
X242921Y441077D01*
X242949Y441174D01*
X242973Y441272D01*
X242994Y441371D01*
X243011Y441471D01*
X243024Y441572D01*
X243033Y441673D01*
X243039Y441774D01*
X243041Y441875D01*
X243042Y441875D02*
X243042Y448649D01*
X243041Y448649D02*
X243039Y448750D01*
X243033Y448851D01*
X243024Y448952D01*
X243011Y449053D01*
X242994Y449153D01*
X242973Y449252D01*
X242949Y449350D01*
X242921Y449447D01*
X242889Y449544D01*
X242854Y449639D01*
X242815Y449732D01*
X242773Y449824D01*
X242727Y449915D01*
X242678Y450004D01*
X242626Y450090D01*
X242570Y450175D01*
X242512Y450258D01*
X242450Y450338D01*
X242385Y450416D01*
X242318Y450492D01*
X242248Y450565D01*
X242175Y450635D01*
X242099Y450702D01*
X242021Y450767D01*
X241941Y450829D01*
X241858Y450887D01*
X241773Y450943D01*
X241687Y450995D01*
X241598Y451044D01*
X241507Y451090D01*
X241415Y451132D01*
X241322Y451171D01*
X241227Y451206D01*
X241130Y451238D01*
X241033Y451266D01*
X240935Y451290D01*
X240836Y451311D01*
X240736Y451328D01*
X240635Y451341D01*
X240534Y451350D01*
X240433Y451356D01*
X240332Y451358D01*
X237623Y451358D01*
X232071Y451358D02*
X232071Y439166D01*
X232071Y447294D02*
X228685Y447294D01*
X228596Y447292D01*
X228508Y447286D01*
X228420Y447277D01*
X228332Y447263D01*
X228245Y447246D01*
X228159Y447225D01*
X228074Y447200D01*
X227990Y447171D01*
X227907Y447139D01*
X227826Y447104D01*
X227747Y447064D01*
X227669Y447022D01*
X227593Y446976D01*
X227519Y446927D01*
X227448Y446874D01*
X227379Y446819D01*
X227312Y446760D01*
X227248Y446699D01*
X227187Y446635D01*
X227128Y446568D01*
X227073Y446499D01*
X227020Y446428D01*
X226971Y446354D01*
X226925Y446278D01*
X226883Y446200D01*
X226843Y446121D01*
X226808Y446040D01*
X226776Y445957D01*
X226747Y445873D01*
X226722Y445788D01*
X226701Y445702D01*
X226684Y445615D01*
X226670Y445527D01*
X226661Y445439D01*
X226655Y445351D01*
X226653Y445262D01*
X226653Y439166D01*
X218518Y439166D02*
X215131Y439166D01*
X218518Y439166D02*
X218607Y439168D01*
X218695Y439174D01*
X218783Y439183D01*
X218871Y439197D01*
X218958Y439214D01*
X219044Y439235D01*
X219129Y439260D01*
X219213Y439289D01*
X219296Y439321D01*
X219377Y439356D01*
X219456Y439396D01*
X219534Y439438D01*
X219610Y439484D01*
X219684Y439533D01*
X219755Y439586D01*
X219824Y439641D01*
X219891Y439700D01*
X219955Y439761D01*
X220016Y439825D01*
X220075Y439892D01*
X220130Y439961D01*
X220183Y440032D01*
X220232Y440106D01*
X220278Y440182D01*
X220320Y440260D01*
X220360Y440339D01*
X220395Y440420D01*
X220427Y440503D01*
X220456Y440587D01*
X220481Y440672D01*
X220502Y440758D01*
X220519Y440845D01*
X220533Y440933D01*
X220542Y441021D01*
X220548Y441109D01*
X220550Y441198D01*
X220550Y444585D01*
X220548Y444688D01*
X220542Y444790D01*
X220533Y444892D01*
X220519Y444994D01*
X220502Y445095D01*
X220480Y445195D01*
X220455Y445294D01*
X220427Y445393D01*
X220394Y445490D01*
X220358Y445586D01*
X220319Y445681D01*
X220275Y445774D01*
X220229Y445865D01*
X220178Y445954D01*
X220125Y446042D01*
X220068Y446127D01*
X220008Y446210D01*
X219945Y446291D01*
X219879Y446370D01*
X219810Y446445D01*
X219738Y446519D01*
X219664Y446589D01*
X219587Y446657D01*
X219507Y446721D01*
X219425Y446783D01*
X219341Y446841D01*
X219254Y446896D01*
X219166Y446948D01*
X219075Y446996D01*
X218983Y447041D01*
X218890Y447083D01*
X218794Y447121D01*
X218698Y447155D01*
X218600Y447186D01*
X218501Y447212D01*
X218401Y447236D01*
X218300Y447255D01*
X218199Y447270D01*
X218097Y447282D01*
X217995Y447290D01*
X217892Y447294D01*
X217790Y447294D01*
X217687Y447290D01*
X217585Y447282D01*
X217483Y447270D01*
X217382Y447255D01*
X217281Y447236D01*
X217181Y447212D01*
X217082Y447186D01*
X216984Y447155D01*
X216888Y447121D01*
X216792Y447083D01*
X216699Y447041D01*
X216607Y446996D01*
X216516Y446948D01*
X216428Y446896D01*
X216341Y446841D01*
X216257Y446783D01*
X216175Y446721D01*
X216095Y446657D01*
X216018Y446589D01*
X215944Y446519D01*
X215872Y446445D01*
X215803Y446370D01*
X215737Y446291D01*
X215674Y446210D01*
X215614Y446127D01*
X215557Y446042D01*
X215504Y445954D01*
X215453Y445865D01*
X215407Y445774D01*
X215363Y445681D01*
X215324Y445586D01*
X215288Y445490D01*
X215255Y445393D01*
X215227Y445294D01*
X215202Y445195D01*
X215180Y445095D01*
X215163Y444994D01*
X215149Y444892D01*
X215140Y444790D01*
X215134Y444688D01*
X215132Y444585D01*
X215131Y444585D02*
X215131Y443230D01*
X220550Y443230D01*
X209029Y439166D02*
X209029Y447294D01*
X205642Y447294D01*
X205553Y447292D01*
X205465Y447286D01*
X205377Y447277D01*
X205289Y447263D01*
X205202Y447246D01*
X205116Y447225D01*
X205031Y447200D01*
X204947Y447171D01*
X204864Y447139D01*
X204783Y447104D01*
X204704Y447064D01*
X204626Y447022D01*
X204550Y446976D01*
X204476Y446927D01*
X204405Y446874D01*
X204336Y446819D01*
X204269Y446760D01*
X204205Y446699D01*
X204144Y446635D01*
X204085Y446568D01*
X204030Y446499D01*
X203977Y446428D01*
X203928Y446354D01*
X203882Y446278D01*
X203840Y446200D01*
X203800Y446121D01*
X203765Y446040D01*
X203733Y445957D01*
X203704Y445873D01*
X203679Y445788D01*
X203658Y445702D01*
X203641Y445615D01*
X203627Y445527D01*
X203618Y445439D01*
X203612Y445351D01*
X203610Y445262D01*
X203610Y439166D01*
M02*
