M48
;GenerationSoftware,Autodesk,EAGLE,9.6.2*%
;CreationDate,2022-04-14T06:02:55Z*%
FMAT,2
ICI,OFF
METRIC,TZ,000.000
T4C0.350
T3C0.813
T2C0.900
T1C1.016
%
G90
M71
T1
X41783Y10795
X2540Y7620
X2540Y26670
X2540Y29210
X2540Y31750
X2540Y34290
X2540Y36830
X2540Y13970
X2540Y16510
X2540Y19050
X2540Y21590
X2540Y24130
X46990Y13970
X46990Y16510
X46990Y19050
X33909Y2032
X46990Y24130
X46990Y26670
X46990Y29210
X46990Y31750
X46990Y34290
X46990Y36830
X41783Y8382
X46990Y21590
X2540Y5080
X2540Y2540
X15494Y2540
X15494Y5080
X12700Y5080
X12700Y2540
X12700Y7620
X12700Y10160
X41529Y2032
X38989Y2032
X36449Y2032
X31369Y2032
X28829Y2032
X20574Y48006
X23114Y48006
X25654Y48006
X28194Y48006
X30734Y48006
X44704Y2159
X44704Y4699
X44704Y7239
X44704Y9779
X42926Y47117
X48006Y47117
X7112Y47117
X2032Y47117
T2
X22860Y1779
X20360Y1779
X22860Y5079
X20360Y5079
X25360Y5079
X25360Y1779
T3
X29210Y11430
X29210Y13970
X29210Y16510
X29210Y19050
X29210Y21590
X29210Y24130
X21590Y26670
X29210Y29210
X29210Y31750
X29210Y34290
X29210Y36830
X29210Y39370
X29210Y41910
X29210Y26670
X39497Y45720
X33020Y41910
X33020Y39370
X31750Y21590
X34290Y21590
X19050Y11430
X16510Y11430
X39497Y48260
X10541Y48260
X10541Y45720
X37719Y35941
X37719Y43561
X11684Y35687
X11684Y43307
X40640Y43561
X40640Y35941
X8763Y43307
X8763Y35687
X21590Y41910
X21590Y39370
X21590Y36830
X21590Y34290
X21590Y31750
X21590Y29210
X21590Y24130
X21590Y21590
X21590Y19050
X21590Y16510
X21590Y13970
X21590Y11430
X21590Y8890
X29210Y8890
T4
X26670Y21590
X33528Y8890
X33528Y13970
X31750Y11430
X31750Y16510
X19050Y40640
X19050Y17780
X7620Y5080
X17145Y44323
X17145Y17653
X13843Y41910
X7620Y17272
X7620Y12700
X35814Y19050
X35814Y6985
X5080Y15240
X5080Y21590
X38100Y21590
X38100Y12700
X15240Y26670
X15240Y8890
X12700Y29210
X12700Y19050
M30